<svg width="249" height="68" viewBox="0 0 249 68" fill="none" xmlns="http://www.w3.org/2000/svg">
<path fill-rule="evenodd" clip-rule="evenodd" d="M53.7734 60.703C50.0024 59.6098 49.3593 57.2406 51.845 53.5941C42.6455 56.356 34.5596 53.3202 27.5877 44.4861C22.2229 37.8895 17.0052 35.1251 11.9354 36.1924C16.9746 39.5712 20.9309 42.9776 23.8045 46.4112C31.7647 55.9407 39.4551 59.7662 46.8749 57.8892C48.2201 60.3358 51.0967 61.5089 53.7734 60.703Z" fill="#FF8D02"/>
<path fill-rule="evenodd" clip-rule="evenodd" d="M13.1225 41.4132C12.9264 46.5259 15.2315 51.4149 19.3038 54.5222C23.3753 57.6296 28.7065 58.5677 33.5966 57.0378C24.4646 55.858 16.6585 49.9005 13.1225 41.4132Z" fill="#FF8D02"/>
<path fill-rule="evenodd" clip-rule="evenodd" d="M59.7196 0H8.40138C3.78068 0 0 3.7736 0 8.38614V59.6134C0 64.226 3.78068 68 8.40138 68H59.7196C64.3399 68 68.121 64.226 68.121 59.6134V8.38614C68.121 3.7736 64.3399 0 59.7196 0ZM41.9001 45.7624C36.4327 43.701 32.3436 39.0701 30.982 33.3969C37.0259 31.4066 41.5506 31.1595 44.5571 32.6563C45.8119 33.0933 46.6133 34.3195 46.5086 35.6419C46.4043 36.9639 45.4197 38.0488 44.1122 38.2842C45.1713 40.183 47.3721 41.1398 49.4866 40.6213C51.6011 40.1022 53.106 38.2353 53.1625 36.0631C55.7877 37.8539 57.6207 40.5853 58.2809 43.6901C53.5019 47.0476 47.3671 47.8238 41.9001 45.7624ZM21.4302 61.1847C11.2658 59.1751 5.20975 53.9177 3.26452 45.412V33.3229C18.8875 32.6115 27.6819 34.4625 29.6476 38.8764C34.3379 50.1843 43.2642 53.492 56.4266 48.7995C54.0059 54.1001 54.4512 57.5809 57.7618 59.2404C62.269 59.7489 63.802 53.6028 62.3616 40.8019C60.038 28.8914 45.3502 24.5474 18.2976 27.7689C11.6496 28.1709 6.63882 25.6532 3.26452 20.2155V9.05278C7.07747 20.6864 16.0503 25.0304 30.1843 22.0862C19.1292 19.2477 11.0957 13.1317 6.0837 3.7393C6.72806 3.43065 7.44825 3.25793 8.2074 3.25793H11.8611C15.8454 9.66463 21.4335 13.3734 28.6262 14.3847C23.3448 10.793 20.3777 7.08422 19.7246 3.25793H35.8222C37.1491 9.08372 40.8828 14.3968 47.0235 19.1975C45.4905 16.9287 44.2048 11.6152 43.1657 3.25793H50.5097C48.0663 13.7377 51.4791 23.6913 60.7469 33.1192C55.6109 24.0434 54.7701 14.0894 58.2248 3.25793H59.914C62.6322 3.25793 64.8565 5.47867 64.8565 8.19208V59.8075C64.8565 62.5217 62.6322 64.7421 59.914 64.7421H8.2074C5.48878 64.7421 3.26452 62.5217 3.26452 59.8075V54.8905C7.35147 60.646 14.6497 63.175 21.4302 61.1847Z" fill="#FF8D02"/>
<path fill-rule="evenodd" clip-rule="evenodd" d="M13.1225 41.4132C12.9264 46.5259 15.2315 51.4149 19.3038 54.5222C23.3753 57.6296 28.7065 58.5677 33.5966 57.0378C24.4646 55.858 16.6585 49.9005 13.1225 41.4132Z" fill="#FF8D02"/>
<path fill-rule="evenodd" clip-rule="evenodd" d="M23.8045 46.4112C31.7647 55.9407 39.4551 59.7662 46.8749 57.8892C48.2201 60.3358 51.0967 61.5089 53.7734 60.703C50.0024 59.6098 49.3593 57.2406 51.845 53.5941C42.6455 56.356 34.5596 53.3202 27.5877 44.4861C22.2229 37.8895 17.0052 35.1251 11.9354 36.1924C16.9746 39.5712 20.9309 42.9776 23.8045 46.4112Z" fill="#FF8D02"/>
<path d="M85.7431 10.2791V23.1269H82.9782V10.2791H85.7431ZM90.2592 10.2054V10.9796H78.4621V10.2054H90.2592ZM90.2592 10.9243V13.0994L90.0749 13.0809V12.8782C90.0749 12.3006 89.9028 11.8459 89.5588 11.5141C89.227 11.1701 88.7723 10.9919 88.1947 10.9796V10.9243H90.2592ZM90.2592 9.87361V10.4082L88.0104 10.2054C88.2807 10.2054 88.5634 10.187 88.8583 10.1501C89.1655 10.1132 89.4482 10.0702 89.7062 10.0211C89.9643 9.97192 90.1486 9.92277 90.2592 9.87361ZM83.0335 21.7813V23.1269H81.5589V22.9426C81.5589 22.9426 81.5957 22.9426 81.6695 22.9426C81.7555 22.9426 81.7985 22.9426 81.7985 22.9426C82.118 22.9426 82.3883 22.832 82.6095 22.6108C82.843 22.3773 82.9659 22.1008 82.9782 21.7813H83.0335ZM85.6878 21.7813H85.7431C85.7554 22.1008 85.8722 22.3773 86.0934 22.6108C86.3269 22.832 86.6033 22.9426 86.9228 22.9426C86.9228 22.9426 86.9597 22.9426 87.0334 22.9426C87.1195 22.9426 87.1625 22.9426 87.1625 22.9426V23.1269H85.6878V21.7813ZM80.5082 10.9243V10.9796C79.9429 10.9919 79.4882 11.1701 79.1442 11.5141C78.8124 11.8459 78.6465 12.3006 78.6465 12.8782V13.0809L78.4621 13.0994V10.9243H80.5082ZM78.4621 9.87361C78.585 9.92277 78.7693 9.97192 79.0151 10.0211C79.2732 10.0702 79.5558 10.1132 79.863 10.1501C80.1703 10.187 80.4529 10.2054 80.711 10.2054L78.4621 10.4082V9.87361ZM95.2728 10.2238V23.1269H92.5079V10.2238H95.2728ZM92.5632 21.7813V23.1269H91.0885V22.9426C91.0885 22.9426 91.1254 22.9426 91.1991 22.9426C91.2852 22.9426 91.3282 22.9426 91.3282 22.9426C91.6477 22.9426 91.918 22.832 92.1392 22.6108C92.3727 22.3773 92.4956 22.1008 92.5079 21.7813H92.5632ZM92.5632 11.5694H92.5079C92.4956 11.2499 92.3727 10.9796 92.1392 10.7584C91.918 10.5249 91.6477 10.4082 91.3282 10.4082C91.3282 10.4082 91.2852 10.4082 91.1991 10.4082C91.1254 10.4082 91.0885 10.4082 91.0885 10.4082V10.2238H92.5632V11.5694ZM95.2175 21.7813H95.2728C95.2851 22.1008 95.4019 22.3773 95.623 22.6108C95.8565 22.832 96.133 22.9426 96.4525 22.9426C96.4525 22.9426 96.4894 22.9426 96.5631 22.9426C96.6369 22.9426 96.6799 22.9426 96.6922 22.9426V23.1269H95.2175V21.7813ZM95.2175 11.5694V10.2238H96.6922V10.4082C96.6799 10.4082 96.6369 10.4082 96.5631 10.4082C96.4894 10.4082 96.4525 10.4082 96.4525 10.4082C96.133 10.4082 95.8565 10.5249 95.623 10.7584C95.4019 10.9796 95.2851 11.2499 95.2728 11.5694H95.2175ZM110.815 17.9657V21.0071C110.52 21.3758 110.078 21.7444 109.488 22.1131C108.911 22.4817 108.216 22.789 107.405 23.0347C106.594 23.2682 105.691 23.385 104.696 23.385C103.295 23.385 102.072 23.1146 101.027 22.5739C99.9828 22.0209 99.1718 21.2406 98.5942 20.2329C98.0166 19.2253 97.7279 18.0333 97.7279 16.6569C97.7279 15.2806 98.0105 14.0948 98.5758 13.0994C99.1533 12.104 99.9705 11.336 101.027 10.7953C102.096 10.2423 103.356 9.96578 104.806 9.96578C105.482 9.96578 106.139 10.0149 106.778 10.1132C107.417 10.1993 108.007 10.316 108.548 10.4635C109.089 10.6109 109.537 10.783 109.894 10.9796L109.93 14.1316H109.765C109.531 13.296 109.193 12.6324 108.751 12.1409C108.308 11.637 107.792 11.2807 107.202 11.0718C106.625 10.8506 106.01 10.74 105.359 10.74C104.364 10.74 103.516 10.9857 102.815 11.4773C102.127 11.9565 101.605 12.6447 101.249 13.5418C100.904 14.4388 100.732 15.5141 100.732 16.7675C100.732 17.9472 100.892 18.9795 101.212 19.8643C101.543 20.7368 102.023 21.4126 102.649 21.8919C103.276 22.3589 104.038 22.5985 104.935 22.6108C105.39 22.6108 105.826 22.5432 106.244 22.408C106.674 22.2605 107.049 22.0516 107.368 21.7813C107.688 21.5109 107.915 21.1791 108.05 20.7859L108.069 17.9657C108.069 17.4127 107.755 17.1362 107.129 17.1362H106.834V16.9519H112.013V17.1362H111.737C111.098 17.1362 110.791 17.4127 110.815 17.9657ZM116.613 10.2238V23.1269H113.848V10.2238H116.613ZM121.48 22.3343L121.922 23.1269H116.558V22.3343H121.48ZM120.798 16.3804V17.1546H116.558V16.3804H120.798ZM121.701 10.2238V11.0165H116.558V10.2238H121.701ZM122.825 19.3481L121.977 23.1269H118.364L119.028 22.3343C119.642 22.3343 120.183 22.2175 120.65 21.9841C121.117 21.7383 121.516 21.3942 121.848 20.9518C122.18 20.4971 122.444 19.9626 122.641 19.3481H122.825ZM120.798 17.1178V18.8873H120.613V18.7399C120.613 18.2852 120.466 17.9104 120.171 17.6154C119.876 17.3205 119.501 17.1669 119.046 17.1546V17.1178H120.798ZM120.798 14.6477V16.4173H119.046V16.3804C119.501 16.3681 119.876 16.2145 120.171 15.9196C120.466 15.6124 120.613 15.2315 120.613 14.7768V14.6477H120.798ZM121.701 10.9612V13.1178H121.516V12.8966C121.516 12.3313 121.344 11.8767 121 11.5326C120.669 11.1885 120.214 11.0103 119.636 10.998V10.9612H121.701ZM121.701 9.89204V10.4266L119.452 10.2238C119.722 10.2238 120.005 10.2054 120.3 10.1685C120.607 10.1317 120.89 10.0887 121.148 10.0395C121.406 9.99035 121.59 9.9412 121.701 9.89204ZM113.904 21.7813V23.1269H112.429V22.9426C112.429 22.9426 112.466 22.9426 112.54 22.9426C112.626 22.9426 112.669 22.9426 112.669 22.9426C112.988 22.9426 113.258 22.832 113.48 22.6108C113.713 22.3773 113.836 22.1008 113.848 21.7813H113.904ZM113.904 11.5694H113.848C113.836 11.2499 113.713 10.9796 113.48 10.7584C113.258 10.5249 112.988 10.4082 112.669 10.4082C112.669 10.4082 112.626 10.4082 112.54 10.4082C112.466 10.4082 112.429 10.4082 112.429 10.4082V10.2238H113.904V11.5694ZM127.819 10.2238H130.197C130.75 10.2238 131.291 10.2853 131.819 10.4082C132.348 10.5311 132.815 10.7277 133.22 10.998C133.638 11.2684 133.97 11.6247 134.215 12.0671C134.461 12.5095 134.584 13.0564 134.584 13.7077C134.584 14.2238 134.473 14.7399 134.252 15.256C134.043 15.7599 133.718 16.1961 133.275 16.5648C132.833 16.9211 132.262 17.1362 131.561 17.2099C131.954 17.3328 132.311 17.554 132.63 17.8735C132.962 18.193 133.232 18.5125 133.441 18.832C133.454 18.8566 133.521 18.9672 133.644 19.1638C133.779 19.3604 133.939 19.6062 134.123 19.9011C134.32 20.1838 134.523 20.4725 134.732 20.7675C134.94 21.0624 135.131 21.3205 135.303 21.5417C135.573 21.8735 135.819 22.1438 136.04 22.3527C136.261 22.5493 136.495 22.6968 136.741 22.7951C136.987 22.8811 137.269 22.9303 137.589 22.9426V23.1269H135.782C135.119 23.1269 134.516 23.0716 133.976 22.961C133.435 22.8381 132.956 22.6353 132.538 22.3527C132.12 22.0701 131.758 21.6891 131.45 21.2099C131.352 21.0624 131.242 20.8781 131.119 20.6569C131.008 20.4234 130.891 20.1776 130.768 19.9196C130.646 19.6615 130.523 19.4157 130.4 19.1822C130.289 18.9365 130.191 18.7153 130.105 18.5187C130.019 18.322 129.957 18.1684 129.921 18.0578C129.761 17.6646 129.57 17.3697 129.349 17.1731C129.14 16.9764 128.913 16.8597 128.667 16.8228V16.6385C128.704 16.6385 128.778 16.6385 128.888 16.6385C128.999 16.6385 129.116 16.6385 129.239 16.6385C129.57 16.6385 129.89 16.5709 130.197 16.4357C130.517 16.3006 130.799 16.0794 131.045 15.7722C131.291 15.4649 131.463 15.041 131.561 14.5003C131.586 14.3897 131.604 14.2607 131.616 14.1132C131.641 13.9657 131.647 13.7998 131.635 13.6155C131.598 12.7307 131.377 12.0856 130.971 11.68C130.566 11.2622 130.062 11.0472 129.46 11.0349C129.288 11.0226 129.097 11.0226 128.888 11.0349C128.692 11.0349 128.507 11.0349 128.335 11.0349C128.176 11.0349 128.065 11.0349 128.004 11.0349C128.004 11.0226 127.985 10.955 127.948 10.8321C127.924 10.6969 127.893 10.5618 127.856 10.4266C127.831 10.2914 127.819 10.2238 127.819 10.2238ZM128.059 10.2238V23.1269H125.294V10.2238H128.059ZM125.349 21.7813V23.1269H123.875V22.9426C123.887 22.9426 123.924 22.9426 123.985 22.9426C124.059 22.9426 124.102 22.9426 124.114 22.9426C124.434 22.9426 124.704 22.832 124.925 22.6108C125.159 22.3773 125.282 22.1008 125.294 21.7813H125.349ZM125.349 11.5694H125.294C125.282 11.2499 125.159 10.9796 124.925 10.7584C124.704 10.5249 124.434 10.4082 124.114 10.4082C124.102 10.4082 124.059 10.4082 123.985 10.4082C123.924 10.4082 123.887 10.4082 123.875 10.4082V10.2238H125.349V11.5694ZM128.004 21.7813H128.059C128.059 22.1008 128.176 22.3773 128.409 22.6108C128.643 22.832 128.919 22.9426 129.239 22.9426C129.263 22.9426 129.306 22.9426 129.368 22.9426C129.429 22.9426 129.46 22.9426 129.46 22.9426V23.1269H128.004V21.7813ZM147.581 9.85518L153.608 23.0163H150.29L146.456 13.4127L147.581 9.85518ZM143.618 21.7813C143.519 22.0271 143.501 22.236 143.562 22.408C143.624 22.58 143.728 22.7152 143.876 22.8135C144.023 22.8996 144.171 22.9426 144.318 22.9426H144.484V23.1269H140.539V22.9426C140.539 22.9426 140.57 22.9426 140.631 22.9426C140.681 22.9426 140.705 22.9426 140.705 22.9426C140.988 22.9426 141.277 22.8565 141.571 22.6845C141.879 22.5002 142.131 22.1991 142.327 21.7813H143.618ZM147.581 9.85518L147.654 12.104L143.083 23.0716H141.737L146.511 12.2699C146.548 12.1962 146.61 12.061 146.696 11.8644C146.794 11.6555 146.892 11.422 146.991 11.1639C147.101 10.9059 147.2 10.6601 147.286 10.4266C147.372 10.1808 147.415 9.99035 147.415 9.85518H147.581ZM149.516 18.7399V19.514H144.097V18.7399H149.516ZM149.793 21.7813H153.018C153.227 22.1991 153.479 22.5002 153.774 22.6845C154.069 22.8565 154.358 22.9426 154.64 22.9426C154.64 22.9426 154.665 22.9426 154.714 22.9426C154.763 22.9426 154.788 22.9426 154.788 22.9426V23.1269H148.926V22.9426H149.092C149.338 22.9426 149.553 22.8443 149.737 22.6476C149.922 22.4387 149.94 22.1499 149.793 21.7813ZM159.19 9.96578C159.435 9.96578 159.736 9.97807 160.093 10.0026C160.461 10.0272 160.836 10.0641 161.217 10.1132C161.61 10.1501 161.948 10.1931 162.231 10.2423C162.526 10.2791 162.729 10.3221 162.839 10.3713L162.618 12.8597H162.434C162.434 12.2207 162.194 11.7108 161.715 11.3298C161.248 10.9366 160.621 10.74 159.835 10.74C159.122 10.74 158.544 10.912 158.102 11.2561C157.672 11.6002 157.445 12.018 157.42 12.5095C157.408 12.8782 157.524 13.1977 157.77 13.468C158.016 13.7384 158.329 13.9903 158.71 14.2238L162.231 16.5095C162.796 16.829 163.22 17.2468 163.503 17.7629C163.798 18.279 163.927 18.8812 163.89 19.5693C163.829 20.7736 163.368 21.7137 162.508 22.3896C161.647 23.0532 160.48 23.385 159.005 23.385C158.465 23.385 157.936 23.3358 157.42 23.2375C156.916 23.1515 156.468 23.0286 156.074 22.8688C155.681 22.6968 155.368 22.494 155.134 22.2605C155.036 21.9902 154.993 21.6645 155.005 21.2836C155.018 20.9027 155.073 20.5156 155.171 20.1223C155.282 19.7291 155.417 19.4034 155.577 19.1454H155.743C155.693 19.7721 155.804 20.3558 156.074 20.8965C156.357 21.4249 156.763 21.8489 157.291 22.1684C157.832 22.4756 158.471 22.6231 159.208 22.6108C160.019 22.5985 160.646 22.3957 161.088 22.0025C161.531 21.597 161.752 21.1116 161.752 20.5463C161.752 20.1653 161.635 19.8213 161.402 19.514C161.18 19.2068 160.812 18.9119 160.296 18.6293L157.07 16.491C156.419 16.1224 155.945 15.6493 155.65 15.0717C155.356 14.4941 155.239 13.8674 155.3 13.1915C155.362 12.5525 155.552 11.9934 155.872 11.5141C156.191 11.0226 156.627 10.6417 157.18 10.3713C157.746 10.101 158.415 9.96578 159.19 9.96578ZM162.858 10.1501L162.821 10.5372H160.646V10.1501H162.858ZM169.662 9.96578C169.908 9.96578 170.209 9.97807 170.565 10.0026C170.934 10.0272 171.308 10.0641 171.689 10.1132C172.083 10.1501 172.421 10.1931 172.703 10.2423C172.998 10.2791 173.201 10.3221 173.312 10.3713L173.09 12.8597H172.906C172.906 12.2207 172.666 11.7108 172.187 11.3298C171.72 10.9366 171.093 10.74 170.307 10.74C169.594 10.74 169.017 10.912 168.574 11.2561C168.144 11.6002 167.917 12.018 167.892 12.5095C167.88 12.8782 167.997 13.1977 168.242 13.468C168.488 13.7384 168.802 13.9903 169.183 14.2238L172.703 16.5095C173.269 16.829 173.692 17.2468 173.975 17.7629C174.27 18.279 174.399 18.8812 174.362 19.5693C174.301 20.7736 173.84 21.7137 172.98 22.3896C172.12 23.0532 170.952 23.385 169.477 23.385C168.937 23.385 168.408 23.3358 167.892 23.2375C167.388 23.1515 166.94 23.0286 166.547 22.8688C166.153 22.6968 165.84 22.494 165.607 22.2605C165.508 21.9902 165.465 21.6645 165.478 21.2836C165.49 20.9027 165.545 20.5156 165.643 20.1223C165.754 19.7291 165.889 19.4034 166.049 19.1454H166.215C166.166 19.7721 166.276 20.3558 166.547 20.8965C166.829 21.4249 167.235 21.8489 167.763 22.1684C168.304 22.4756 168.943 22.6231 169.68 22.6108C170.491 22.5985 171.118 22.3957 171.56 22.0025C172.003 21.597 172.224 21.1116 172.224 20.5463C172.224 20.1653 172.107 19.8213 171.874 19.514C171.653 19.2068 171.284 18.9119 170.768 18.6293L167.542 16.491C166.891 16.1224 166.418 15.6493 166.123 15.0717C165.828 14.4941 165.711 13.8674 165.772 13.1915C165.834 12.5525 166.024 11.9934 166.344 11.5141C166.663 11.0226 167.1 10.6417 167.653 10.3713C168.218 10.101 168.888 9.96578 169.662 9.96578ZM173.33 10.1501L173.293 10.5372H171.118V10.1501H173.33ZM179.879 10.2238V23.1269H177.114V10.2238H179.879ZM184.745 22.3343L185.187 23.1269H179.823V22.3343H184.745ZM184.063 16.3804V17.1546H179.823V16.3804H184.063ZM184.966 10.2238V11.0165H179.823V10.2238H184.966ZM186.09 19.3481L185.243 23.1269H181.63L182.293 22.3343C182.908 22.3343 183.448 22.2175 183.915 21.9841C184.382 21.7383 184.782 21.3942 185.114 20.9518C185.445 20.4971 185.71 19.9626 185.906 19.3481H186.09ZM184.063 17.1178V18.8873H183.878V18.7399C183.878 18.2852 183.731 17.9104 183.436 17.6154C183.141 17.3205 182.766 17.1669 182.312 17.1546V17.1178H184.063ZM184.063 14.6477V16.4173H182.312V16.3804C182.766 16.3681 183.141 16.2145 183.436 15.9196C183.731 15.6124 183.878 15.2315 183.878 14.7768V14.6477H184.063ZM184.966 10.9612V13.1178H184.782V12.8966C184.782 12.3313 184.61 11.8767 184.266 11.5326C183.934 11.1885 183.479 11.0103 182.902 10.998V10.9612H184.966ZM184.966 9.89204V10.4266L182.717 10.2238C182.988 10.2238 183.27 10.2054 183.565 10.1685C183.872 10.1317 184.155 10.0887 184.413 10.0395C184.671 9.99035 184.855 9.9412 184.966 9.89204ZM177.169 21.7813V23.1269H175.694V22.9426C175.694 22.9426 175.731 22.9426 175.805 22.9426C175.891 22.9426 175.934 22.9426 175.934 22.9426C176.253 22.9426 176.524 22.832 176.745 22.6108C176.978 22.3773 177.101 22.1008 177.114 21.7813H177.169ZM177.169 11.5694H177.114C177.101 11.2499 176.978 10.9796 176.745 10.7584C176.524 10.5249 176.253 10.4082 175.934 10.4082C175.934 10.4082 175.891 10.4082 175.805 10.4082C175.731 10.4082 175.694 10.4082 175.694 10.4082V10.2238H177.169V11.5694ZM193.921 10.2791V23.1269H191.156V10.2791H193.921ZM198.437 10.2054V10.9796H186.64V10.2054H198.437ZM198.437 10.9243V13.0994L198.253 13.0809V12.8782C198.253 12.3006 198.081 11.8459 197.737 11.5141C197.405 11.1701 196.951 10.9919 196.373 10.9796V10.9243H198.437ZM198.437 9.87361V10.4082L196.189 10.2054C196.459 10.2054 196.742 10.187 197.037 10.1501C197.344 10.1132 197.626 10.0702 197.884 10.0211C198.143 9.97192 198.327 9.92277 198.437 9.87361ZM191.212 21.7813V23.1269H189.737V22.9426C189.737 22.9426 189.774 22.9426 189.848 22.9426C189.934 22.9426 189.977 22.9426 189.977 22.9426C190.296 22.9426 190.567 22.832 190.788 22.6108C191.021 22.3773 191.144 22.1008 191.156 21.7813H191.212ZM193.866 21.7813H193.921C193.934 22.1008 194.05 22.3773 194.272 22.6108C194.505 22.832 194.782 22.9426 195.101 22.9426C195.101 22.9426 195.138 22.9426 195.212 22.9426C195.298 22.9426 195.341 22.9426 195.341 22.9426V23.1269H193.866V21.7813ZM188.686 10.9243V10.9796C188.121 10.9919 187.667 11.1701 187.322 11.5141C186.991 11.8459 186.825 12.3006 186.825 12.8782V13.0809L186.64 13.0994V10.9243H188.686ZM186.64 9.87361C186.763 9.92277 186.948 9.97192 187.193 10.0211C187.451 10.0702 187.734 10.1132 188.041 10.1501C188.349 10.187 188.631 10.2054 188.889 10.2054L186.64 10.4082V9.87361ZM203.599 9.96578C203.844 9.96578 204.145 9.97807 204.502 10.0026C204.87 10.0272 205.245 10.0641 205.626 10.1132C206.019 10.1501 206.357 10.1931 206.64 10.2423C206.935 10.2791 207.138 10.3221 207.248 10.3713L207.027 12.8597H206.843C206.843 12.2207 206.603 11.7108 206.124 11.3298C205.657 10.9366 205.03 10.74 204.244 10.74C203.531 10.74 202.953 10.912 202.511 11.2561C202.081 11.6002 201.854 12.018 201.829 12.5095C201.817 12.8782 201.933 13.1977 202.179 13.468C202.425 13.7384 202.738 13.9903 203.119 14.2238L206.64 16.5095C207.205 16.829 207.629 17.2468 207.912 17.7629C208.207 18.279 208.336 18.8812 208.299 19.5693C208.238 20.7736 207.777 21.7137 206.916 22.3896C206.056 23.0532 204.889 23.385 203.414 23.385C202.874 23.385 202.345 23.3358 201.829 23.2375C201.325 23.1515 200.877 23.0286 200.483 22.8688C200.09 22.6968 199.777 22.494 199.543 22.2605C199.445 21.9902 199.402 21.6645 199.414 21.2836C199.427 20.9027 199.482 20.5156 199.58 20.1223C199.691 19.7291 199.826 19.4034 199.986 19.1454H200.152C200.102 19.7721 200.213 20.3558 200.483 20.8965C200.766 21.4249 201.172 21.8489 201.7 22.1684C202.241 22.4756 202.88 22.6231 203.617 22.6108C204.428 22.5985 205.055 22.3957 205.497 22.0025C205.94 21.597 206.161 21.1116 206.161 20.5463C206.161 20.1653 206.044 19.8213 205.811 19.514C205.589 19.2068 205.221 18.9119 204.705 18.6293L201.479 16.491C200.827 16.1224 200.354 15.6493 200.059 15.0717C199.765 14.4941 199.648 13.8674 199.709 13.1915C199.771 12.5525 199.961 11.9934 200.281 11.5141C200.6 11.0226 201.036 10.6417 201.589 10.3713C202.155 10.101 202.824 9.96578 203.599 9.96578ZM207.267 10.1501L207.23 10.5372H205.055V10.1501H207.267ZM82.9782 35.2238H85.1902C86.247 35.2238 87.101 35.3774 87.7523 35.6847C88.4159 35.9919 88.9075 36.4158 89.227 36.9565C89.5588 37.4849 89.7369 38.0871 89.7615 38.763C89.7861 39.3897 89.6816 39.9611 89.4482 40.4772C89.2147 40.9933 88.8952 41.4234 88.4896 41.7675C88.0841 42.1116 87.6172 42.3635 87.0887 42.5233C86.5726 42.6707 86.0319 42.7076 85.4666 42.6339C84.9137 42.5479 84.373 42.3328 83.8445 41.9887V41.8044C83.8445 41.8044 83.9183 41.8044 84.0657 41.8044C84.2255 41.8044 84.4221 41.7798 84.6556 41.7307C84.9014 41.6815 85.1533 41.5893 85.4113 41.4542C85.6817 41.319 85.9336 41.1101 86.1671 40.8274C86.4006 40.5448 86.5788 40.17 86.7017 39.703C86.7508 39.5433 86.7815 39.3651 86.7938 39.1685C86.8184 38.9596 86.8245 38.7691 86.8123 38.5971C86.8 37.8106 86.5849 37.1839 86.1671 36.7169C85.7616 36.2376 85.184 35.998 84.4344 35.998H83.1625C83.1625 35.998 83.1441 35.9366 83.1072 35.8137C83.0827 35.6785 83.0519 35.5495 83.0151 35.4266C82.9905 35.2914 82.9782 35.2238 82.9782 35.2238ZM83.2178 35.2238V48.1269H80.4529V35.2238H83.2178ZM80.5082 46.7813V48.1269H79.0336V47.9426C79.0458 47.9426 79.0827 47.9426 79.1442 47.9426C79.2179 47.9426 79.2609 47.9426 79.2732 47.9426C79.5927 47.9426 79.863 47.832 80.0842 47.6108C80.3177 47.3773 80.4406 47.1008 80.4529 46.7813H80.5082ZM80.5082 36.5694H80.4529C80.4529 36.2499 80.3361 35.9796 80.1027 35.7584C79.8692 35.5249 79.5927 35.4082 79.2732 35.4082C79.2609 35.4082 79.224 35.4082 79.1626 35.4082C79.1011 35.4082 79.0643 35.4082 79.052 35.4082L79.0336 35.2238H80.5082V36.5694ZM83.1625 46.7813H83.2178C83.2301 47.1008 83.3469 47.3773 83.5681 47.6108C83.8015 47.832 84.078 47.9426 84.3975 47.9426C84.4098 47.9426 84.4467 47.9426 84.5081 47.9426C84.5819 47.9426 84.6249 47.9426 84.6372 47.9426V48.1269H83.1625V46.7813ZM94.8545 35.2238H97.2323C97.7853 35.2238 98.326 35.2853 98.8544 35.4082C99.3828 35.5311 99.8498 35.7277 100.255 35.998C100.673 36.2684 101.005 36.6247 101.251 37.0671C101.496 37.5095 101.619 38.0564 101.619 38.7077C101.619 39.2238 101.509 39.7399 101.288 40.256C101.079 40.7599 100.753 41.1961 100.311 41.5648C99.8682 41.9211 99.2968 42.1362 98.5964 42.2099C98.9896 42.3328 99.346 42.554 99.6655 42.8735C99.9973 43.193 100.268 43.5125 100.477 43.832C100.489 43.8566 100.556 43.9672 100.679 44.1638C100.814 44.3604 100.974 44.6062 101.159 44.9011C101.355 45.1838 101.558 45.4725 101.767 45.7675C101.976 46.0624 102.166 46.3205 102.338 46.5417C102.609 46.8735 102.854 47.1438 103.076 47.3527C103.297 47.5493 103.53 47.6968 103.776 47.7951C104.022 47.8811 104.304 47.9303 104.624 47.9426V48.1269H102.818C102.154 48.1269 101.552 48.0716 101.011 47.961C100.47 47.8381 99.9911 47.6353 99.5733 47.3527C99.1555 47.0701 98.793 46.6891 98.4858 46.2099C98.3875 46.0624 98.2769 45.8781 98.154 45.6569C98.0434 45.4234 97.9266 45.1776 97.8038 44.9196C97.6809 44.6615 97.558 44.4157 97.4351 44.1822C97.3245 43.9365 97.2262 43.7153 97.1402 43.5187C97.0541 43.322 96.9927 43.1684 96.9558 43.0578C96.7961 42.6646 96.6056 42.3697 96.3844 42.1731C96.1755 41.9764 95.9482 41.8597 95.7024 41.8228V41.6385C95.7393 41.6385 95.813 41.6385 95.9236 41.6385C96.0342 41.6385 96.1509 41.6385 96.2738 41.6385C96.6056 41.6385 96.9251 41.5709 97.2323 41.4357C97.5518 41.3006 97.8345 41.0794 98.0802 40.7722C98.326 40.4649 98.4981 40.041 98.5964 39.5003C98.6209 39.3897 98.6394 39.2607 98.6517 39.1132C98.6762 38.9657 98.6824 38.7998 98.6701 38.6155C98.6332 37.7307 98.412 37.0856 98.0065 36.68C97.601 36.2622 97.0972 36.0472 96.495 36.0349C96.323 36.0226 96.1325 36.0226 95.9236 36.0349C95.727 36.0349 95.5426 36.0349 95.3706 36.0349C95.2109 36.0349 95.1003 36.0349 95.0388 36.0349C95.0388 36.0226 95.0204 35.955 94.9835 35.8321C94.9589 35.6969 94.9282 35.5618 94.8913 35.4266C94.8668 35.2914 94.8545 35.2238 94.8545 35.2238ZM95.0941 35.2238V48.1269H92.3292V35.2238H95.0941ZM92.3845 46.7813V48.1269H90.9098V47.9426C90.9221 47.9426 90.959 47.9426 91.0204 47.9426C91.0942 47.9426 91.1372 47.9426 91.1495 47.9426C91.469 47.9426 91.7393 47.832 91.9605 47.6108C92.194 47.3773 92.3169 47.1008 92.3292 46.7813H92.3845ZM92.3845 36.5694H92.3292C92.3169 36.2499 92.194 35.9796 91.9605 35.7584C91.7393 35.5249 91.469 35.4082 91.1495 35.4082C91.1372 35.4082 91.0942 35.4082 91.0204 35.4082C90.959 35.4082 90.9221 35.4082 90.9098 35.4082V35.2238H92.3845V36.5694ZM95.0388 46.7813H95.0941C95.0941 47.1008 95.2109 47.3773 95.4443 47.6108C95.6778 47.832 95.9543 47.9426 96.2738 47.9426C96.2984 47.9426 96.3414 47.9426 96.4028 47.9426C96.4643 47.9426 96.495 47.9426 96.495 47.9426V48.1269H95.0388V46.7813ZM108.409 35.2238V48.1269H105.644V35.2238H108.409ZM105.7 46.7813V48.1269H104.225V47.9426C104.225 47.9426 104.262 47.9426 104.335 47.9426C104.422 47.9426 104.465 47.9426 104.465 47.9426C104.784 47.9426 105.054 47.832 105.276 47.6108C105.509 47.3773 105.632 47.1008 105.644 46.7813H105.7ZM105.7 36.5694H105.644C105.632 36.2499 105.509 35.9796 105.276 35.7584C105.054 35.5249 104.784 35.4082 104.465 35.4082C104.465 35.4082 104.422 35.4082 104.335 35.4082C104.262 35.4082 104.225 35.4082 104.225 35.4082V35.2238H105.7V36.5694ZM108.354 46.7813H108.409C108.421 47.1008 108.538 47.3773 108.759 47.6108C108.993 47.832 109.269 47.9426 109.589 47.9426C109.589 47.9426 109.626 47.9426 109.699 47.9426C109.773 47.9426 109.816 47.9426 109.829 47.9426V48.1269H108.354V46.7813ZM108.354 36.5694V35.2238H109.829V35.4082C109.816 35.4082 109.773 35.4082 109.699 35.4082C109.626 35.4082 109.589 35.4082 109.589 35.4082C109.269 35.4082 108.993 35.5249 108.759 35.7584C108.538 35.9796 108.421 36.2499 108.409 36.5694H108.354ZM117.178 48.4956L111.077 35.3344H114.376L118.321 44.938L117.178 48.4956ZM117.178 48.4956L117.123 46.2467L121.805 35.2791H123.132L118.247 46.0808C118.223 46.1546 118.161 46.2959 118.063 46.5048C117.977 46.7014 117.879 46.9288 117.768 47.1868C117.657 47.4449 117.559 47.6968 117.473 47.9426C117.399 48.176 117.356 48.3604 117.344 48.4956H117.178ZM121.252 36.5694C121.411 36.2008 121.393 35.9181 121.196 35.7215C121 35.5126 120.785 35.4082 120.551 35.4082H120.385V35.2238H124.33V35.4082C124.33 35.4082 124.299 35.4082 124.238 35.4082C124.189 35.4082 124.164 35.4082 124.164 35.4082C123.894 35.4082 123.605 35.5003 123.298 35.6847C123.003 35.8567 122.757 36.1516 122.56 36.5694H121.252ZM114.892 36.5694H111.648C111.452 36.1516 111.2 35.8567 110.892 35.6847C110.598 35.5003 110.309 35.4082 110.026 35.4082C110.026 35.4082 110.002 35.4082 109.952 35.4082C109.903 35.4082 109.879 35.4082 109.879 35.4082V35.2238H115.74V35.4082H115.574C115.341 35.4082 115.132 35.5126 114.948 35.7215C114.776 35.9181 114.757 36.2008 114.892 36.5694ZM128.04 34.8552L134.068 48.0163H130.75L126.916 38.4127L128.04 34.8552ZM124.077 46.7813C123.979 47.0271 123.96 47.236 124.022 47.408C124.083 47.58 124.188 47.7152 124.335 47.8135C124.483 47.8996 124.63 47.9426 124.778 47.9426H124.944V48.1269H120.999V47.9426C120.999 47.9426 121.03 47.9426 121.091 47.9426C121.14 47.9426 121.165 47.9426 121.165 47.9426C121.447 47.9426 121.736 47.8565 122.031 47.6845C122.338 47.5002 122.59 47.1991 122.787 46.7813H124.077ZM128.04 34.8552L128.114 37.104L123.543 48.0716H122.197L126.971 37.2699C127.008 37.1962 127.069 37.061 127.155 36.8644C127.254 36.6555 127.352 36.422 127.45 36.1639C127.561 35.9059 127.659 35.6601 127.745 35.4266C127.831 35.1808 127.874 34.9904 127.874 34.8552H128.04ZM129.976 43.7399V44.514H124.556V43.7399H129.976ZM130.252 46.7813H133.478C133.687 47.1991 133.939 47.5002 134.234 47.6845C134.529 47.8565 134.817 47.9426 135.1 47.9426C135.1 47.9426 135.125 47.9426 135.174 47.9426C135.223 47.9426 135.248 47.9426 135.248 47.9426V48.1269H129.386V47.9426H129.552C129.798 47.9426 130.013 47.8443 130.197 47.6476C130.381 47.4387 130.4 47.1499 130.252 46.7813ZM140.444 35.2791V48.1269H137.679V35.2791H140.444ZM144.96 35.2054V35.9796H133.163V35.2054H144.96ZM144.96 35.9243V38.0994L144.776 38.0809V37.8782C144.776 37.3006 144.604 36.8459 144.26 36.5141C143.928 36.1701 143.473 35.9919 142.896 35.9796V35.9243H144.96ZM144.96 34.8736V35.4082L142.712 35.2054C142.982 35.2054 143.265 35.187 143.559 35.1501C143.867 35.1132 144.149 35.0702 144.407 35.0211C144.665 34.9719 144.85 34.9228 144.96 34.8736ZM137.735 46.7813V48.1269H136.26V47.9426C136.26 47.9426 136.297 47.9426 136.371 47.9426C136.457 47.9426 136.5 47.9426 136.5 47.9426C136.819 47.9426 137.09 47.832 137.311 47.6108C137.544 47.3773 137.667 47.1008 137.679 46.7813H137.735ZM140.389 46.7813H140.444C140.457 47.1008 140.573 47.3773 140.795 47.6108C141.028 47.832 141.305 47.9426 141.624 47.9426C141.624 47.9426 141.661 47.9426 141.735 47.9426C141.821 47.9426 141.864 47.9426 141.864 47.9426V48.1269H140.389V46.7813ZM135.209 35.9243V35.9796C134.644 35.9919 134.189 36.1701 133.845 36.5141C133.514 36.8459 133.348 37.3006 133.348 37.8782V38.0809L133.163 38.0994V35.9243H135.209ZM133.163 34.8736C133.286 34.9228 133.471 34.9719 133.716 35.0211C133.974 35.0702 134.257 35.1132 134.564 35.1501C134.871 35.187 135.154 35.2054 135.412 35.2054L133.163 35.4082V34.8736ZM149.974 35.2238V48.1269H147.209V35.2238H149.974ZM154.84 47.3343L155.283 48.1269H149.919V47.3343H154.84ZM154.158 41.3804V42.1546H149.919V41.3804H154.158ZM155.061 35.2238V36.0165H149.919V35.2238H155.061ZM156.186 44.3481L155.338 48.1269H151.725L152.389 47.3343C153.003 47.3343 153.544 47.2175 154.011 46.9841C154.478 46.7383 154.877 46.3942 155.209 45.9518C155.541 45.4971 155.805 44.9626 156.002 44.3481H156.186ZM154.158 42.1178V43.8873H153.974V43.7399C153.974 43.2852 153.826 42.9104 153.532 42.6154C153.237 42.3205 152.862 42.1669 152.407 42.1546V42.1178H154.158ZM154.158 39.6477V41.4173H152.407V41.3804C152.862 41.3681 153.237 41.2145 153.532 40.9196C153.826 40.6124 153.974 40.2315 153.974 39.7768V39.6477H154.158ZM155.061 35.9612V38.1178H154.877V37.8966C154.877 37.3313 154.705 36.8767 154.361 36.5326C154.029 36.1885 153.575 36.0103 152.997 35.998V35.9612H155.061ZM155.061 34.892V35.4266L152.813 35.2238C153.083 35.2238 153.366 35.2054 153.661 35.1685C153.968 35.1317 154.25 35.0887 154.508 35.0395C154.767 34.9904 154.951 34.9412 155.061 34.892ZM147.264 46.7813V48.1269H145.79V47.9426C145.79 47.9426 145.827 47.9426 145.9 47.9426C145.986 47.9426 146.029 47.9426 146.029 47.9426C146.349 47.9426 146.619 47.832 146.84 47.6108C147.074 47.3773 147.197 47.1008 147.209 46.7813H147.264ZM147.264 36.5694H147.209C147.197 36.2499 147.074 35.9796 146.84 35.7584C146.619 35.5249 146.349 35.4082 146.029 35.4082C146.029 35.4082 145.986 35.4082 145.9 35.4082C145.827 35.4082 145.79 35.4082 145.79 35.4082V35.2238H147.264V36.5694ZM165.86 35.2238V48.1269H163.095V35.2238H165.86ZM170.726 47.3343L171.169 48.1269H165.805V47.3343H170.726ZM172.072 44.3481L171.224 48.1269H167.611L168.275 47.3343C168.889 47.3343 169.43 47.2175 169.897 46.9841C170.364 46.7383 170.763 46.3942 171.095 45.9518C171.427 45.4971 171.691 44.9626 171.888 44.3481H172.072ZM163.151 46.7813V48.1269H161.676V47.9426C161.676 47.9426 161.713 47.9426 161.786 47.9426C161.873 47.9426 161.916 47.9426 161.916 47.9426C162.235 47.9426 162.505 47.832 162.727 47.6108C162.96 47.3773 163.083 47.1008 163.095 46.7813H163.151ZM163.151 36.5694H163.095C163.083 36.2499 162.96 35.9796 162.727 35.7584C162.505 35.5249 162.235 35.4082 161.916 35.4082C161.916 35.4082 161.873 35.4082 161.786 35.4082C161.713 35.4082 161.676 35.4082 161.676 35.4082V35.2238H163.151V36.5694ZM165.805 36.5694V35.2238H167.279V35.4082C167.267 35.4082 167.224 35.4082 167.15 35.4082C167.077 35.4082 167.04 35.4082 167.04 35.4082C166.72 35.4082 166.444 35.5249 166.21 35.7584C165.989 35.9796 165.872 36.2499 165.86 36.5694H165.805ZM176.944 35.2238V48.1269H174.179V35.2238H176.944ZM174.235 46.7813V48.1269H172.76V47.9426C172.76 47.9426 172.797 47.9426 172.871 47.9426C172.957 47.9426 173 47.9426 173 47.9426C173.319 47.9426 173.59 47.832 173.811 47.6108C174.044 47.3773 174.167 47.1008 174.179 46.7813H174.235ZM174.235 36.5694H174.179C174.167 36.2499 174.044 35.9796 173.811 35.7584C173.59 35.5249 173.319 35.4082 173 35.4082C173 35.4082 172.957 35.4082 172.871 35.4082C172.797 35.4082 172.76 35.4082 172.76 35.4082V35.2238H174.235V36.5694ZM176.889 46.7813H176.944C176.957 47.1008 177.073 47.3773 177.295 47.6108C177.528 47.832 177.805 47.9426 178.124 47.9426C178.124 47.9426 178.161 47.9426 178.235 47.9426C178.308 47.9426 178.351 47.9426 178.364 47.9426V48.1269H176.889V46.7813ZM176.889 36.5694V35.2238H178.364V35.4082C178.351 35.4082 178.308 35.4082 178.235 35.4082C178.161 35.4082 178.124 35.4082 178.124 35.4082C177.805 35.4082 177.528 35.5249 177.295 35.7584C177.073 35.9796 176.957 36.2499 176.944 36.5694H176.889ZM193.308 34.9658L193.455 36.975L187.981 46.4679C187.981 46.4679 187.919 46.5785 187.796 46.7997C187.673 47.0086 187.55 47.2667 187.428 47.5739C187.317 47.8811 187.262 48.1883 187.262 48.4956H187.077L186.358 46.8919L193.308 34.9658ZM180.81 46.7813V48.1269H178.764V47.9426C178.776 47.9426 178.832 47.9426 178.93 47.9426C179.016 47.9426 179.059 47.9426 179.059 47.9426C179.391 47.9426 179.686 47.8443 179.944 47.6476C180.202 47.4387 180.355 47.1499 180.405 46.7813H180.81ZM181.621 47.0762C181.621 47.0885 181.621 47.1008 181.621 47.1131C181.621 47.1254 181.621 47.1438 181.621 47.1684C181.621 47.365 181.689 47.5493 181.824 47.7214C181.971 47.8811 182.143 47.961 182.34 47.961H182.617V48.1269H181.492V47.0762H181.621ZM181.935 34.9658H182.1L182.746 36.8091L181.511 48.1269H180.22L181.935 34.9658ZM182.1 34.9658L188.128 44.8643L187.077 48.4956L181.621 39.3344L182.1 34.9658ZM193.474 34.9658L195.225 48.1269H192.257L191.335 39.6477L193.308 34.9658H193.474ZM194.653 46.7813H195.04C195.102 47.1499 195.262 47.4387 195.52 47.6476C195.778 47.8443 196.066 47.9426 196.386 47.9426C196.386 47.9426 196.435 47.9426 196.533 47.9426C196.632 47.9426 196.681 47.9426 196.681 47.9426V48.1269H194.653V46.7813ZM192.146 47.0762H192.275V48.1269H191.151V47.961H191.427C191.636 47.961 191.808 47.8811 191.944 47.7214C192.079 47.5493 192.146 47.365 192.146 47.1684C192.146 47.1438 192.146 47.1254 192.146 47.1131C192.146 47.1008 192.146 47.0885 192.146 47.0762ZM201.273 35.2238V48.1269H198.508V35.2238H201.273ZM198.563 46.7813V48.1269H197.089V47.9426C197.089 47.9426 197.126 47.9426 197.199 47.9426C197.285 47.9426 197.328 47.9426 197.328 47.9426C197.648 47.9426 197.918 47.832 198.139 47.6108C198.373 47.3773 198.496 47.1008 198.508 46.7813H198.563ZM198.563 36.5694H198.508C198.496 36.2499 198.373 35.9796 198.139 35.7584C197.918 35.5249 197.648 35.4082 197.328 35.4082C197.328 35.4082 197.285 35.4082 197.199 35.4082C197.126 35.4082 197.089 35.4082 197.089 35.4082V35.2238H198.563V36.5694ZM201.218 46.7813H201.273C201.285 47.1008 201.402 47.3773 201.623 47.6108C201.857 47.832 202.133 47.9426 202.453 47.9426C202.453 47.9426 202.49 47.9426 202.563 47.9426C202.637 47.9426 202.68 47.9426 202.692 47.9426V48.1269H201.218V46.7813ZM201.218 36.5694V35.2238H202.692V35.4082C202.68 35.4082 202.637 35.4082 202.563 35.4082C202.49 35.4082 202.453 35.4082 202.453 35.4082C202.133 35.4082 201.857 35.5249 201.623 35.7584C201.402 35.9796 201.285 36.2499 201.273 36.5694H201.218ZM210.798 35.2791V48.1269H208.033V35.2791H210.798ZM215.314 35.2054V35.9796H203.517V35.2054H215.314ZM215.314 35.9243V38.0994L215.129 38.0809V37.8782C215.129 37.3006 214.957 36.8459 214.613 36.5141C214.281 36.1701 213.827 35.9919 213.249 35.9796V35.9243H215.314ZM215.314 34.8736V35.4082L213.065 35.2054C213.335 35.2054 213.618 35.187 213.913 35.1501C214.22 35.1132 214.503 35.0702 214.761 35.0211C215.019 34.9719 215.203 34.9228 215.314 34.8736ZM208.088 46.7813V48.1269H206.613V47.9426C206.613 47.9426 206.65 47.9426 206.724 47.9426C206.81 47.9426 206.853 47.9426 206.853 47.9426C207.172 47.9426 207.443 47.832 207.664 47.6108C207.898 47.3773 208.02 47.1008 208.033 46.7813H208.088ZM210.742 46.7813H210.798C210.81 47.1008 210.927 47.3773 211.148 47.6108C211.381 47.832 211.658 47.9426 211.977 47.9426C211.977 47.9426 212.014 47.9426 212.088 47.9426C212.174 47.9426 212.217 47.9426 212.217 47.9426V48.1269H210.742V46.7813ZM205.563 35.9243V35.9796C204.997 35.9919 204.543 36.1701 204.199 36.5141C203.867 36.8459 203.701 37.3006 203.701 37.8782V38.0809L203.517 38.0994V35.9243H205.563ZM203.517 34.8736C203.64 34.9228 203.824 34.9719 204.07 35.0211C204.328 35.0702 204.61 35.1132 204.918 35.1501C205.225 35.187 205.507 35.2054 205.765 35.2054L203.517 35.4082V34.8736ZM220.327 35.2238V48.1269H217.562V35.2238H220.327ZM225.194 47.3343L225.636 48.1269H220.272V47.3343H225.194ZM224.512 41.3804V42.1546H220.272V41.3804H224.512ZM225.415 35.2238V36.0165H220.272V35.2238H225.415ZM226.539 44.3481L225.691 48.1269H222.078L222.742 47.3343C223.356 47.3343 223.897 47.2175 224.364 46.9841C224.831 46.7383 225.23 46.3942 225.562 45.9518C225.894 45.4971 226.158 44.9626 226.355 44.3481H226.539ZM224.512 42.1178V43.8873H224.327V43.7399C224.327 43.2852 224.18 42.9104 223.885 42.6154C223.59 42.3205 223.215 42.1669 222.76 42.1546V42.1178H224.512ZM224.512 39.6477V41.4173H222.76V41.3804C223.215 41.3681 223.59 41.2145 223.885 40.9196C224.18 40.6124 224.327 40.2315 224.327 39.7768V39.6477H224.512ZM225.415 35.9612V38.1178H225.23V37.8966C225.23 37.3313 225.058 36.8767 224.714 36.5326C224.383 36.1885 223.928 36.0103 223.35 35.998V35.9612H225.415ZM225.415 34.892V35.4266L223.166 35.2238C223.436 35.2238 223.719 35.2054 224.014 35.1685C224.321 35.1317 224.604 35.0887 224.862 35.0395C225.12 34.9904 225.304 34.9412 225.415 34.892ZM217.618 46.7813V48.1269H216.143V47.9426C216.143 47.9426 216.18 47.9426 216.254 47.9426C216.34 47.9426 216.383 47.9426 216.383 47.9426C216.702 47.9426 216.973 47.832 217.194 47.6108C217.427 47.3773 217.55 47.1008 217.562 46.7813H217.618ZM217.618 36.5694H217.562C217.55 36.2499 217.427 35.9796 217.194 35.7584C216.973 35.5249 216.702 35.4082 216.383 35.4082C216.383 35.4082 216.34 35.4082 216.254 35.4082C216.18 35.4082 216.143 35.4082 216.143 35.4082V35.2238H217.618V36.5694ZM234.224 35.2238C235.675 35.2238 236.928 35.488 237.985 36.0165C239.042 36.5326 239.853 37.276 240.418 38.2468C240.995 39.2054 241.284 40.3482 241.284 41.6754C241.284 43.0025 240.995 44.1515 240.418 45.1223C239.853 46.0808 239.042 46.8243 237.985 47.3527C236.928 47.8688 235.675 48.1269 234.224 48.1269H229.837L229.819 47.3527C230.175 47.3527 230.544 47.3527 230.925 47.3527C231.318 47.3527 231.699 47.3527 232.068 47.3527C232.436 47.3527 232.762 47.3527 233.045 47.3527C233.34 47.3527 233.573 47.3527 233.745 47.3527C233.917 47.3527 234.003 47.3527 234.003 47.3527C234.888 47.3527 235.65 47.1254 236.289 46.6707C236.928 46.2037 237.419 45.5463 237.764 44.6984C238.108 43.8505 238.28 42.8428 238.28 41.6754C238.28 40.5079 238.108 39.5003 237.764 38.6524C237.419 37.8044 236.928 37.1532 236.289 36.6985C235.65 36.2315 234.888 35.998 234.003 35.998C234.003 35.998 233.911 35.998 233.727 35.998C233.555 35.998 233.315 35.998 233.008 35.998C232.701 35.998 232.357 35.998 231.976 35.998C231.595 35.998 231.201 35.998 230.796 35.998C230.39 35.998 230.003 35.998 229.635 35.998V35.2238H234.224ZM231.718 35.2238V48.1269H228.953V35.2238H231.718ZM229.008 46.7813V48.1269H227.533V47.9426C227.533 47.9426 227.57 47.9426 227.644 47.9426C227.73 47.9426 227.773 47.9426 227.773 47.9426C228.092 47.9426 228.363 47.832 228.584 47.6108C228.817 47.3773 228.94 47.1008 228.953 46.7813H229.008ZM229.008 36.5694H228.953C228.953 36.2499 228.836 35.9796 228.602 35.7584C228.369 35.5249 228.092 35.4082 227.773 35.4082C227.773 35.4082 227.736 35.4082 227.662 35.4082C227.589 35.4082 227.552 35.4082 227.552 35.4082L227.533 35.2238H229.008V36.5694Z" fill="#414042"/>
<path d="M80.0711 53.4033V59.8732H79.4703V53.4033H80.0711ZM79.4981 59.1985V59.8732H78.7586V59.7807C78.7586 59.7807 78.7771 59.7807 78.8141 59.7807C78.8572 59.7807 78.8788 59.7807 78.8788 59.7807C79.039 59.7807 79.1746 59.7253 79.2855 59.6144C79.4025 59.4973 79.4642 59.3587 79.4703 59.1985H79.4981ZM79.4981 54.078H79.4703C79.4642 53.9178 79.4025 53.7822 79.2855 53.6713C79.1746 53.5542 79.039 53.4957 78.8788 53.4957C78.8788 53.4957 78.8572 53.4957 78.8141 53.4957C78.7771 53.4957 78.7586 53.4957 78.7586 53.4957V53.4033H79.4981V54.078ZM80.0434 59.1985H80.0711C80.0773 59.3587 80.1358 59.4973 80.2467 59.6144C80.3638 59.7253 80.5024 59.7807 80.6626 59.7807C80.6626 59.7807 80.6811 59.7807 80.7181 59.7807C80.7551 59.7807 80.7766 59.7807 80.7828 59.7807V59.8732H80.0434V59.1985ZM80.0434 54.078V53.4033H80.7828V53.4957C80.7766 53.4957 80.7551 53.4957 80.7181 53.4957C80.6811 53.4957 80.6626 53.4957 80.6626 53.4957C80.5024 53.4957 80.3638 53.5542 80.2467 53.6713C80.1358 53.7822 80.0773 53.9178 80.0711 54.078H80.0434ZM82.4917 53.2646L87.8617 58.9951L87.9449 60.0026L82.5749 54.2813L82.4917 53.2646ZM82.5102 59.2169V59.8732H81.743V59.7807C81.743 59.7807 81.7708 59.7807 81.8262 59.7807C81.8817 59.7807 81.9125 59.7807 81.9186 59.7807C82.0727 59.7807 82.2052 59.7253 82.3161 59.6144C82.427 59.5035 82.4824 59.371 82.4824 59.2169H82.5102ZM82.9076 59.2169C82.9076 59.371 82.9631 59.5035 83.074 59.6144C83.1849 59.7253 83.3174 59.7807 83.4714 59.7807C83.4776 59.7807 83.5084 59.7807 83.5638 59.7807C83.6193 59.7807 83.647 59.7807 83.647 59.7807V59.8732H82.8799V59.2169H82.9076ZM82.4917 53.2646L82.8984 53.7822L82.9076 59.8732H82.4824V54.42C82.4824 54.1057 82.467 53.8346 82.4362 53.6066C82.4116 53.3786 82.3993 53.2646 82.3993 53.2646H82.4917ZM87.9449 53.4033V58.8195C87.9449 59.0167 87.9511 59.2077 87.9634 59.3925C87.9757 59.5712 87.988 59.7191 88.0003 59.8362C88.0188 59.9471 88.0281 60.0026 88.0281 60.0026H87.9449L87.529 59.5127V53.4033H87.9449ZM88.6843 53.4033V53.4957C88.6843 53.4957 88.6566 53.4957 88.6011 53.4957C88.5457 53.4957 88.5179 53.4957 88.5179 53.4957C88.3639 53.4957 88.2314 53.5511 88.1205 53.6621C88.0096 53.7668 87.9511 53.8993 87.9449 54.0595H87.9172V53.4033H88.6843ZM86.7803 53.4033H87.5475V54.0595H87.529C87.5228 53.8993 87.4643 53.7668 87.3534 53.6621C87.2486 53.5511 87.1161 53.4957 86.9559 53.4957C86.9559 53.4957 86.9282 53.4957 86.8727 53.4957C86.8173 53.4957 86.7865 53.4957 86.7803 53.4957V53.4033ZM92.2596 53.431V59.8732H91.6588V53.431H92.2596ZM94.635 53.394V53.6713H89.2834V53.394H94.635ZM94.635 53.6436V54.3922L94.5425 54.383V54.2259C94.5425 54.0718 94.4871 53.9424 94.3762 53.8377C94.2714 53.7329 94.1451 53.6775 93.9972 53.6713V53.6436H94.635ZM94.635 53.2276V53.4957L93.5074 53.394C93.6429 53.394 93.7846 53.3848 93.9325 53.3663C94.0866 53.3478 94.2283 53.3262 94.3577 53.3016C94.4871 53.2769 94.5795 53.2523 94.635 53.2276ZM91.6865 59.1985V59.8732H90.9471V59.7807C90.9471 59.7807 90.9656 59.7807 91.0026 59.7807C91.0457 59.7807 91.0673 59.7807 91.0673 59.7807C91.2275 59.7807 91.363 59.7253 91.474 59.6144C91.591 59.4973 91.6526 59.3587 91.6588 59.1985H91.6865ZM92.2319 59.1985H92.2596C92.2657 59.3587 92.3243 59.4973 92.4352 59.6144C92.5523 59.7253 92.6909 59.7807 92.8511 59.7807C92.8511 59.7807 92.8696 59.7807 92.9066 59.7807C92.9497 59.7807 92.9713 59.7807 92.9713 59.7807V59.8732H92.2319V59.1985ZM89.9212 53.6436V53.6713C89.7671 53.6775 89.6377 53.7329 89.533 53.8377C89.4282 53.9424 89.3759 54.0718 89.3759 54.2259V54.383L89.2834 54.3922V53.6436H89.9212ZM89.2834 53.2276C89.345 53.2523 89.4375 53.2769 89.5607 53.3016C89.6901 53.3262 89.8318 53.3478 89.9859 53.3663C90.1399 53.3848 90.2816 53.394 90.411 53.394L89.2834 53.4957V53.2276ZM96.6791 53.4033V59.8732H96.0783V53.4033H96.6791ZM99.1747 59.5866V59.8732H96.6514V59.5866H99.1747ZM98.7772 56.5458V56.8231H96.6514V56.5458H98.7772ZM99.1747 53.4033V53.6898H96.6514V53.4033H99.1747ZM99.7385 58.3758L99.2024 59.8732H97.6681L98.0008 59.5866C98.3274 59.5866 98.5924 59.5373 98.7957 59.4388C99.0052 59.334 99.1747 59.1892 99.3041 59.0044C99.4335 58.8195 99.5474 58.61 99.646 58.3758H99.7385ZM98.7772 56.8046V57.4146H98.6848V57.276C98.6848 57.1527 98.6417 57.048 98.5554 56.9617C98.4691 56.8693 98.3644 56.8231 98.2411 56.8231V56.8046H98.7772ZM98.7772 55.9543V56.5643H98.2411V56.5458C98.3644 56.5396 98.4691 56.4934 98.5554 56.4071C98.6417 56.3147 98.6848 56.2069 98.6848 56.0837V55.9543H98.7772ZM99.1747 53.6621V54.4015H99.0822V54.2351C99.0822 54.0872 99.0299 53.9609 98.9251 53.8562C98.8204 53.7452 98.691 53.6867 98.5369 53.6805V53.6621H99.1747ZM99.1747 53.2369V53.5049L98.047 53.4033C98.1826 53.4033 98.3243 53.394 98.4722 53.3755C98.6263 53.357 98.768 53.3355 98.8974 53.3108C99.0268 53.2862 99.1192 53.2615 99.1747 53.2369ZM96.1061 59.1985V59.8732H95.3667V59.7807C95.3667 59.7807 95.3851 59.7807 95.4221 59.7807C95.4652 59.7807 95.4868 59.7807 95.4868 59.7807C95.647 59.7807 95.7826 59.7253 95.8935 59.6144C96.0106 59.4973 96.0722 59.3587 96.0783 59.1985H96.1061ZM96.1061 54.078H96.0783C96.0783 53.9178 96.0198 53.7822 95.9027 53.6713C95.7857 53.5542 95.647 53.4957 95.4868 53.4957C95.4868 53.4957 95.4683 53.4957 95.4314 53.4957C95.3944 53.4957 95.3759 53.4957 95.3759 53.4957L95.3667 53.4033H96.1061V54.078ZM106.519 57.2852V58.8103C106.377 58.9951 106.186 59.18 105.946 59.3648C105.706 59.5497 105.41 59.7037 105.059 59.827C104.714 59.944 104.307 60.0026 103.839 60.0026C103.186 59.9964 102.609 59.8547 102.11 59.5774C101.611 59.294 101.22 58.9027 100.936 58.4036C100.659 57.8983 100.521 57.3099 100.521 56.6382C100.521 55.9666 100.659 55.3781 100.936 54.8729C101.22 54.3676 101.611 53.9763 102.11 53.699C102.609 53.4156 103.186 53.2739 103.839 53.2739C104.178 53.2739 104.483 53.3016 104.754 53.357C105.025 53.4125 105.268 53.4895 105.484 53.5881C105.706 53.6805 105.906 53.7853 106.085 53.9024L106.27 55.2056H106.186C106.094 54.8482 105.94 54.5494 105.724 54.309C105.515 54.0626 105.25 53.8746 104.929 53.7452C104.609 53.6158 104.245 53.5511 103.839 53.5511C103.321 53.5511 102.865 53.6805 102.471 53.9393C102.076 54.1981 101.768 54.5586 101.546 55.0207C101.325 55.4829 101.214 56.022 101.214 56.6382C101.214 57.2544 101.325 57.7936 101.546 58.2557C101.768 58.7178 102.076 59.0783 102.471 59.3371C102.865 59.5897 103.321 59.7191 103.839 59.7253C104.11 59.7253 104.369 59.6945 104.615 59.6329C104.868 59.5651 105.105 59.4727 105.327 59.3556C105.549 59.2323 105.746 59.0875 105.918 58.9212L105.928 57.2852C105.928 57.0079 105.77 56.8693 105.456 56.8693H105.308V56.7769H107.12V56.8693H106.981C106.661 56.8693 106.507 57.0079 106.519 57.2852ZM108.853 53.4033H110.156C110.433 53.4033 110.683 53.4433 110.904 53.5234C111.132 53.6035 111.323 53.7206 111.477 53.8746C111.631 54.0225 111.749 54.2043 111.829 54.42C111.915 54.6295 111.958 54.8698 111.958 55.1409C111.958 55.4367 111.887 55.7201 111.745 55.9912C111.61 56.2623 111.422 56.4842 111.182 56.6567C110.948 56.8231 110.683 56.9063 110.387 56.9063C110.492 56.9494 110.606 57.0387 110.729 57.1743C110.852 57.3037 110.96 57.43 111.052 57.5532C111.052 57.5532 111.092 57.6149 111.172 57.7381C111.259 57.8552 111.363 58 111.487 58.1725C111.616 58.345 111.745 58.5145 111.875 58.6809C112.004 58.8472 112.115 58.9797 112.208 59.0783C112.331 59.2139 112.454 59.334 112.577 59.4388C112.701 59.5435 112.833 59.6267 112.975 59.6883C113.123 59.7499 113.286 59.7807 113.465 59.7807V59.8732H112.956C112.673 59.8732 112.426 59.83 112.217 59.7438C112.014 59.6575 111.841 59.5528 111.699 59.4295C111.558 59.3001 111.437 59.1769 111.339 59.0598C111.32 59.0352 111.268 58.9643 111.182 58.8472C111.102 58.7302 111.003 58.5915 110.886 58.4313C110.775 58.2649 110.664 58.1016 110.553 57.9414C110.442 57.7812 110.347 57.6457 110.267 57.5348C110.187 57.4177 110.14 57.3499 110.128 57.3314C110.011 57.1774 109.882 57.0357 109.74 56.9063C109.598 56.7769 109.444 56.7122 109.278 56.7122V56.6197C109.278 56.6197 109.324 56.6228 109.416 56.629C109.515 56.629 109.632 56.6259 109.768 56.6197C109.928 56.6136 110.103 56.5889 110.294 56.5458C110.485 56.5027 110.664 56.4133 110.83 56.2777C110.997 56.1422 111.123 55.9358 111.209 55.6585C111.228 55.5907 111.243 55.5075 111.256 55.4089C111.268 55.3042 111.271 55.2025 111.265 55.1039C111.259 54.6849 111.151 54.3522 110.941 54.1057C110.738 53.8531 110.464 53.7175 110.119 53.699C109.946 53.6867 109.768 53.6836 109.583 53.6898C109.404 53.6898 109.253 53.6898 109.13 53.6898C109.007 53.6898 108.945 53.6898 108.945 53.6898C108.945 53.6836 108.936 53.659 108.917 53.6158C108.905 53.5665 108.889 53.5203 108.871 53.4772C108.859 53.4279 108.853 53.4033 108.853 53.4033ZM108.973 53.4033V59.8732H108.372V53.4033H108.973ZM108.4 59.1985V59.8732H107.66V59.7807C107.66 59.7807 107.679 59.7807 107.716 59.7807C107.759 59.7807 107.78 59.7807 107.78 59.7807C107.941 59.7807 108.076 59.7253 108.187 59.6144C108.304 59.4973 108.366 59.3587 108.372 59.1985H108.4ZM108.4 54.078H108.372C108.366 53.9178 108.304 53.7822 108.187 53.6713C108.076 53.5542 107.941 53.4957 107.78 53.4957C107.78 53.4957 107.759 53.4957 107.716 53.4957C107.679 53.4957 107.66 53.4957 107.66 53.4957V53.4033H108.4V54.078ZM108.945 59.1985H108.973C108.973 59.3587 109.031 59.4973 109.148 59.6144C109.265 59.7253 109.404 59.7807 109.564 59.7807C109.564 59.7807 109.583 59.7807 109.62 59.7807C109.657 59.7807 109.675 59.7807 109.675 59.7807V59.8732H108.945V59.1985ZM114.948 53.4033V59.8732H114.347V53.4033H114.948ZM114.375 59.1985V59.8732H113.635V59.7807C113.635 59.7807 113.654 59.7807 113.691 59.7807C113.734 59.7807 113.756 59.7807 113.756 59.7807C113.916 59.7807 114.051 59.7253 114.162 59.6144C114.279 59.4973 114.341 59.3587 114.347 59.1985H114.375ZM114.375 54.078H114.347C114.341 53.9178 114.279 53.7822 114.162 53.6713C114.051 53.5542 113.916 53.4957 113.756 53.4957C113.756 53.4957 113.734 53.4957 113.691 53.4957C113.654 53.4957 113.635 53.4957 113.635 53.4957V53.4033H114.375V54.078ZM114.92 59.1985H114.948C114.954 59.3587 115.013 59.4973 115.124 59.6144C115.241 59.7253 115.379 59.7807 115.539 59.7807C115.539 59.7807 115.558 59.7807 115.595 59.7807C115.632 59.7807 115.653 59.7807 115.66 59.7807V59.8732H114.92V59.1985ZM114.92 54.078V53.4033H115.66V53.4957C115.653 53.4957 115.632 53.4957 115.595 53.4957C115.558 53.4957 115.539 53.4957 115.539 53.4957C115.379 53.4957 115.241 53.5542 115.124 53.6713C115.013 53.7822 114.954 53.9178 114.948 54.078H114.92ZM119.365 53.431V59.8732H118.764V53.431H119.365ZM121.74 53.394V53.6713H116.389V53.394H121.74ZM121.74 53.6436V54.3922L121.648 54.383V54.2259C121.648 54.0718 121.592 53.9424 121.482 53.8377C121.377 53.7329 121.25 53.6775 121.103 53.6713V53.6436H121.74ZM121.74 53.2276V53.4957L120.613 53.394C120.748 53.394 120.89 53.3848 121.038 53.3663C121.192 53.3478 121.334 53.3262 121.463 53.3016C121.592 53.2769 121.685 53.2523 121.74 53.2276ZM118.792 59.1985V59.8732H118.052V59.7807C118.052 59.7807 118.071 59.7807 118.108 59.7807C118.151 59.7807 118.173 59.7807 118.173 59.7807C118.333 59.7807 118.468 59.7253 118.579 59.6144C118.696 59.4973 118.758 59.3587 118.764 59.1985H118.792ZM119.337 59.1985H119.365C119.371 59.3587 119.43 59.4973 119.541 59.6144C119.658 59.7253 119.796 59.7807 119.956 59.7807C119.956 59.7807 119.975 59.7807 120.012 59.7807C120.055 59.7807 120.077 59.7807 120.077 59.7807V59.8732H119.337V59.1985ZM117.027 53.6436V53.6713C116.873 53.6775 116.743 53.7329 116.638 53.8377C116.534 53.9424 116.481 54.0718 116.481 54.2259V54.383L116.389 54.3922V53.6436H117.027ZM116.389 53.2276C116.45 53.2523 116.543 53.2769 116.666 53.3016C116.795 53.3262 116.937 53.3478 117.091 53.3663C117.245 53.3848 117.387 53.394 117.516 53.394L116.389 53.4957V53.2276ZM123.304 53.4125L125.115 56.7861L124.718 57.1096L122.509 53.4125H123.304ZM125.245 56.897V59.8732H124.644V56.897H125.245ZM126.89 53.4125H127.454L125.18 57.0911L124.847 56.9894L126.89 53.4125ZM126.511 54.0687C126.567 53.9825 126.582 53.8962 126.557 53.8099C126.533 53.7175 126.486 53.6436 126.419 53.5881C126.351 53.5265 126.274 53.4957 126.188 53.4957C126.188 53.4957 126.169 53.4957 126.132 53.4957C126.095 53.4957 126.077 53.4957 126.077 53.4957V53.4033H128.129V53.4957H127.999C127.808 53.4957 127.629 53.5511 127.463 53.6621C127.297 53.773 127.164 53.8993 127.066 54.041L126.511 54.0687ZM123.655 54.0687L122.879 54.041C122.792 53.8993 122.666 53.773 122.5 53.6621C122.333 53.5511 122.152 53.4957 121.954 53.4957H121.825V53.4033H124.099V53.4957C124.099 53.4957 124.077 53.4957 124.034 53.4957C123.997 53.4957 123.979 53.4957 123.979 53.4957C123.843 53.4957 123.738 53.5604 123.664 53.6898C123.597 53.813 123.593 53.9393 123.655 54.0687ZM124.663 59.1985V59.8732H123.932V59.7807C123.932 59.7807 123.951 59.7807 123.988 59.7807C124.025 59.7807 124.046 59.7807 124.053 59.7807C124.213 59.7807 124.348 59.7253 124.459 59.6144C124.576 59.4973 124.638 59.3587 124.644 59.1985H124.663ZM125.217 59.1985H125.245C125.245 59.3587 125.303 59.4973 125.42 59.6144C125.538 59.7253 125.676 59.7807 125.836 59.7807C125.836 59.7807 125.855 59.7807 125.892 59.7807C125.929 59.7807 125.947 59.7807 125.947 59.7807V59.8732H125.217V59.1985ZM127.984 59.9101C127.867 59.9101 127.769 59.8701 127.689 59.79C127.609 59.7099 127.569 59.6113 127.569 59.4942C127.569 59.3771 127.609 59.2786 127.689 59.1985C127.769 59.1183 127.867 59.0783 127.984 59.0783C128.102 59.0783 128.2 59.1183 128.28 59.1985C128.36 59.2786 128.4 59.3771 128.4 59.4942C128.4 59.6113 128.36 59.7099 128.28 59.79C128.2 59.8701 128.102 59.9101 127.984 59.9101ZM137.677 57.1743L137.566 58.6254C137.406 58.8904 137.203 59.1276 136.956 59.3371C136.716 59.5404 136.43 59.7037 136.097 59.827C135.77 59.944 135.394 60.0026 134.969 60.0026C134.328 59.9964 133.758 59.8547 133.259 59.5774C132.76 59.3001 132.369 58.9119 132.086 58.4128C131.808 57.9075 131.67 57.3129 131.67 56.629C131.67 55.9573 131.808 55.372 132.086 54.8729C132.363 54.3676 132.751 53.9763 133.25 53.699C133.755 53.4156 134.347 53.2739 135.025 53.2739C135.481 53.2739 135.89 53.3355 136.254 53.4587C136.624 53.5758 136.944 53.7237 137.215 53.9024L137.4 55.2056H137.317C137.181 54.6634 136.904 54.2536 136.485 53.9763C136.066 53.6929 135.579 53.5511 135.025 53.5511C134.482 53.5511 134.011 53.6805 133.611 53.9393C133.216 54.192 132.908 54.5494 132.686 55.0115C132.471 55.4675 132.363 56.0035 132.363 56.6197C132.363 57.2359 132.471 57.7751 132.686 58.2372C132.908 58.6993 133.213 59.0598 133.601 59.3186C133.996 59.5774 134.452 59.713 134.969 59.7253C135.407 59.7253 135.81 59.6452 136.18 59.485C136.556 59.3186 136.87 59.0506 137.123 58.6809C137.375 58.305 137.536 57.8028 137.603 57.1743H137.677ZM142.102 53.2739C142.762 53.2739 143.341 53.4156 143.84 53.699C144.339 53.9763 144.727 54.3676 145.005 54.8729C145.288 55.3781 145.43 55.9666 145.43 56.6382C145.43 57.3099 145.288 57.8983 145.005 58.4036C144.727 58.9088 144.339 59.3032 143.84 59.5866C143.341 59.8639 142.762 60.0026 142.102 60.0026C141.449 60.0026 140.873 59.8639 140.374 59.5866C139.875 59.3032 139.484 58.9088 139.2 58.4036C138.923 57.8983 138.784 57.3099 138.784 56.6382C138.784 55.9666 138.923 55.3781 139.2 54.8729C139.484 54.3676 139.875 53.9763 140.374 53.699C140.873 53.4156 141.449 53.2739 142.102 53.2739ZM142.102 59.7253C142.626 59.7253 143.082 59.5959 143.47 59.3371C143.865 59.0783 144.17 58.7178 144.385 58.2557C144.607 57.7936 144.718 57.2544 144.718 56.6382C144.718 56.022 144.607 55.4829 144.385 55.0207C144.17 54.5586 143.865 54.1981 143.47 53.9393C143.082 53.6805 142.626 53.5511 142.102 53.5511C141.585 53.5511 141.129 53.6805 140.735 53.9393C140.346 54.1981 140.041 54.5586 139.82 55.0207C139.604 55.4829 139.496 56.022 139.496 56.6382C139.496 57.2544 139.604 57.7936 139.82 58.2557C140.041 58.7178 140.346 59.0783 140.735 59.3371C141.129 59.5959 141.585 59.7253 142.102 59.7253ZM146.866 53.2646L152.236 58.9951L152.319 60.0026L146.949 54.2813L146.866 53.2646ZM146.884 59.2169V59.8732H146.117V59.7807C146.117 59.7807 146.145 59.7807 146.2 59.7807C146.256 59.7807 146.287 59.7807 146.293 59.7807C146.447 59.7807 146.579 59.7253 146.69 59.6144C146.801 59.5035 146.857 59.371 146.857 59.2169H146.884ZM147.282 59.2169C147.282 59.371 147.337 59.5035 147.448 59.6144C147.559 59.7253 147.691 59.7807 147.846 59.7807C147.852 59.7807 147.883 59.7807 147.938 59.7807C147.993 59.7807 148.021 59.7807 148.021 59.7807V59.8732H147.254V59.2169H147.282ZM146.866 53.2646L147.272 53.7822L147.282 59.8732H146.857V54.42C146.857 54.1057 146.841 53.8346 146.81 53.6066C146.786 53.3786 146.773 53.2646 146.773 53.2646H146.866ZM152.319 53.4033V58.8195C152.319 59.0167 152.325 59.2077 152.338 59.3925C152.35 59.5712 152.362 59.7191 152.374 59.8362C152.393 59.9471 152.402 60.0026 152.402 60.0026H152.319L151.903 59.5127V53.4033H152.319ZM153.058 53.4033V53.4957C153.058 53.4957 153.031 53.4957 152.975 53.4957C152.92 53.4957 152.892 53.4957 152.892 53.4957C152.738 53.4957 152.606 53.5511 152.495 53.6621C152.384 53.7668 152.325 53.8993 152.319 54.0595H152.291V53.4033H153.058ZM151.154 53.4033H151.922V54.0595H151.903C151.897 53.8993 151.838 53.7668 151.727 53.6621C151.623 53.5511 151.49 53.4957 151.33 53.4957C151.33 53.4957 151.302 53.4957 151.247 53.4957C151.191 53.4957 151.161 53.4957 151.154 53.4957V53.4033ZM155.793 53.2739C155.891 53.2739 155.996 53.28 156.107 53.2923C156.224 53.3047 156.335 53.3232 156.44 53.3478C156.551 53.3663 156.649 53.3879 156.735 53.4125C156.828 53.431 156.899 53.4526 156.948 53.4772V54.5031H156.865C156.865 54.2074 156.763 53.9763 156.56 53.8099C156.356 53.6374 156.11 53.5511 155.82 53.5511C155.481 53.5511 155.207 53.659 154.998 53.8746C154.788 54.0841 154.683 54.3306 154.683 54.6141C154.683 54.7311 154.708 54.8698 154.757 55.03C154.813 55.184 154.911 55.3288 155.053 55.4644L156.874 57.1466C157.059 57.3191 157.182 57.504 157.244 57.7011C157.305 57.8983 157.336 58.0893 157.336 58.2742C157.336 58.7856 157.179 59.2015 156.865 59.5219C156.557 59.8424 156.138 60.0026 155.608 60.0026C155.46 60.0026 155.284 59.9872 155.081 59.9564C154.884 59.9255 154.69 59.8732 154.499 59.7992C154.314 59.7191 154.16 59.6175 154.037 59.4942C154.018 59.3956 154.009 59.2724 154.009 59.1245C154.009 58.9766 154.021 58.8226 154.046 58.6624C154.07 58.496 154.104 58.345 154.147 58.2095H154.231C154.2 58.5237 154.24 58.7979 154.351 59.0321C154.462 59.2662 154.622 59.4449 154.831 59.5682C155.047 59.6852 155.29 59.7376 155.562 59.7253C155.9 59.7068 156.19 59.5897 156.43 59.3741C156.677 59.1522 156.8 58.8565 156.8 58.4868C156.8 58.3081 156.769 58.1479 156.708 58.0061C156.646 57.8583 156.557 57.7319 156.44 57.6272L154.665 55.982C154.48 55.8095 154.351 55.6215 154.277 55.4182C154.203 55.2087 154.166 55.0146 154.166 54.8359C154.166 54.5771 154.228 54.3275 154.351 54.0872C154.474 53.8469 154.656 53.6528 154.896 53.5049C155.143 53.3509 155.441 53.2739 155.793 53.2739ZM156.948 53.3663V53.5604H156.246V53.3663H156.948ZM159.726 53.4033V59.8732H159.126V53.4033H159.726ZM159.153 59.1985V59.8732H158.414V59.7807C158.414 59.7807 158.432 59.7807 158.469 59.7807C158.513 59.7807 158.534 59.7807 158.534 59.7807C158.694 59.7807 158.83 59.7253 158.941 59.6144C159.058 59.4973 159.119 59.3587 159.126 59.1985H159.153ZM159.153 54.078H159.126C159.119 53.9178 159.058 53.7822 158.941 53.6713C158.83 53.5542 158.694 53.4957 158.534 53.4957C158.534 53.4957 158.513 53.4957 158.469 53.4957C158.432 53.4957 158.414 53.4957 158.414 53.4957V53.4033H159.153V54.078ZM159.699 59.1985H159.726C159.733 59.3587 159.791 59.4973 159.902 59.6144C160.019 59.7253 160.158 59.7807 160.318 59.7807C160.318 59.7807 160.336 59.7807 160.373 59.7807C160.41 59.7807 160.432 59.7807 160.438 59.7807V59.8732H159.699V59.1985ZM159.699 54.078V53.4033H160.438V53.4957C160.432 53.4957 160.41 53.4957 160.373 53.4957C160.336 53.4957 160.318 53.4957 160.318 53.4957C160.158 53.4957 160.019 53.5542 159.902 53.6713C159.791 53.7822 159.733 53.9178 159.726 54.078H159.699ZM163.302 53.2739C163.401 53.2739 163.506 53.28 163.617 53.2923C163.734 53.3047 163.845 53.3232 163.949 53.3478C164.06 53.3663 164.159 53.3879 164.245 53.4125C164.338 53.431 164.408 53.4526 164.458 53.4772V54.5031H164.374C164.374 54.2074 164.273 53.9763 164.069 53.8099C163.866 53.6374 163.62 53.5511 163.33 53.5511C162.991 53.5511 162.717 53.659 162.507 53.8746C162.298 54.0841 162.193 54.3306 162.193 54.6141C162.193 54.7311 162.218 54.8698 162.267 55.03C162.323 55.184 162.421 55.3288 162.563 55.4644L164.384 57.1466C164.569 57.3191 164.692 57.504 164.753 57.7011C164.815 57.8983 164.846 58.0893 164.846 58.2742C164.846 58.7856 164.689 59.2015 164.374 59.5219C164.066 59.8424 163.647 60.0026 163.117 60.0026C162.97 60.0026 162.794 59.9872 162.591 59.9564C162.393 59.9255 162.199 59.8732 162.008 59.7992C161.824 59.7191 161.669 59.6175 161.546 59.4942C161.528 59.3956 161.518 59.2724 161.518 59.1245C161.518 58.9766 161.531 58.8226 161.555 58.6624C161.58 58.496 161.614 58.345 161.657 58.2095H161.74C161.71 58.5237 161.75 58.7979 161.86 59.0321C161.971 59.2662 162.132 59.4449 162.341 59.5682C162.557 59.6852 162.8 59.7376 163.071 59.7253C163.41 59.7068 163.7 59.5897 163.94 59.3741C164.187 59.1522 164.31 58.8565 164.31 58.4868C164.31 58.3081 164.279 58.1479 164.217 58.0061C164.156 57.8583 164.066 57.7319 163.949 57.6272L162.175 55.982C161.99 55.8095 161.86 55.6215 161.787 55.4182C161.713 55.2087 161.676 55.0146 161.676 54.8359C161.676 54.5771 161.737 54.3275 161.86 54.0872C161.984 53.8469 162.165 53.6528 162.406 53.5049C162.652 53.3509 162.951 53.2739 163.302 53.2739ZM164.458 53.3663V53.5604H163.755V53.3663H164.458ZM168.53 53.431V59.8732H167.929V53.431H168.53ZM170.905 53.394V53.6713H165.554V53.394H170.905ZM170.905 53.6436V54.3922L170.813 54.383V54.2259C170.813 54.0718 170.758 53.9424 170.647 53.8377C170.542 53.7329 170.416 53.6775 170.268 53.6713V53.6436H170.905ZM170.905 53.2276V53.4957L169.778 53.394C169.913 53.394 170.055 53.3848 170.203 53.3663C170.357 53.3478 170.499 53.3262 170.628 53.3016C170.758 53.2769 170.85 53.2523 170.905 53.2276ZM167.957 59.1985V59.8732H167.218V59.7807C167.218 59.7807 167.236 59.7807 167.273 59.7807C167.316 59.7807 167.338 59.7807 167.338 59.7807C167.498 59.7807 167.634 59.7253 167.744 59.6144C167.862 59.4973 167.923 59.3587 167.929 59.1985H167.957ZM168.502 59.1985H168.53C168.536 59.3587 168.595 59.4973 168.706 59.6144C168.823 59.7253 168.961 59.7807 169.122 59.7807C169.122 59.7807 169.14 59.7807 169.177 59.7807C169.22 59.7807 169.242 59.7807 169.242 59.7807V59.8732H168.502V59.1985ZM166.192 53.6436V53.6713C166.038 53.6775 165.908 53.7329 165.804 53.8377C165.699 53.9424 165.646 54.0718 165.646 54.2259V54.383L165.554 54.3922V53.6436H166.192ZM165.554 53.2276C165.616 53.2523 165.708 53.2769 165.831 53.3016C165.961 53.3262 166.102 53.3478 166.256 53.3663C166.41 53.3848 166.552 53.394 166.682 53.394L165.554 53.4957V53.2276ZM172.95 53.4033V59.8732H172.349V53.4033H172.95ZM175.445 59.5866V59.8732H172.922V59.5866H175.445ZM175.048 56.5458V56.8231H172.922V56.5458H175.048ZM175.445 53.4033V53.6898H172.922V53.4033H175.445ZM176.009 58.3758L175.473 59.8732H173.939L174.271 59.5866C174.598 59.5866 174.863 59.5373 175.066 59.4388C175.276 59.334 175.445 59.1892 175.575 59.0044C175.704 58.8195 175.818 58.61 175.917 58.3758H176.009ZM175.048 56.8046V57.4146H174.955V57.276C174.955 57.1527 174.912 57.048 174.826 56.9617C174.74 56.8693 174.635 56.8231 174.512 56.8231V56.8046H175.048ZM175.048 55.9543V56.5643H174.512V56.5458C174.635 56.5396 174.74 56.4934 174.826 56.4071C174.912 56.3147 174.955 56.2069 174.955 56.0837V55.9543H175.048ZM175.445 53.6621V54.4015H175.353V54.2351C175.353 54.0872 175.3 53.9609 175.196 53.8562C175.091 53.7452 174.961 53.6867 174.807 53.6805V53.6621H175.445ZM175.445 53.2369V53.5049L174.318 53.4033C174.453 53.4033 174.595 53.394 174.743 53.3755C174.897 53.357 175.039 53.3355 175.168 53.3108C175.297 53.2862 175.39 53.2615 175.445 53.2369ZM172.377 59.1985V59.8732H171.637V59.7807C171.637 59.7807 171.656 59.7807 171.693 59.7807C171.736 59.7807 171.757 59.7807 171.757 59.7807C171.918 59.7807 172.053 59.7253 172.164 59.6144C172.281 59.4973 172.343 59.3587 172.349 59.1985H172.377ZM172.377 54.078H172.349C172.349 53.9178 172.29 53.7822 172.173 53.6713C172.056 53.5542 171.918 53.4957 171.757 53.4957C171.757 53.4957 171.739 53.4957 171.702 53.4957C171.665 53.4957 171.646 53.4957 171.646 53.4957L171.637 53.4033H172.377V54.078ZM177.491 53.2646L182.861 58.9951L182.945 60.0026L177.575 54.2813L177.491 53.2646ZM177.51 59.2169V59.8732H176.743V59.7807C176.743 59.7807 176.77 59.7807 176.826 59.7807C176.881 59.7807 176.912 59.7807 176.918 59.7807C177.072 59.7807 177.205 59.7253 177.316 59.6144C177.427 59.5035 177.482 59.371 177.482 59.2169H177.51ZM177.907 59.2169C177.907 59.371 177.963 59.5035 178.074 59.6144C178.185 59.7253 178.317 59.7807 178.471 59.7807C178.477 59.7807 178.508 59.7807 178.564 59.7807C178.619 59.7807 178.647 59.7807 178.647 59.7807V59.8732H177.88V59.2169H177.907ZM177.491 53.2646L177.898 53.7822L177.907 59.8732H177.482V54.42C177.482 54.1057 177.467 53.8346 177.436 53.6066C177.411 53.3786 177.399 53.2646 177.399 53.2646H177.491ZM182.945 53.4033V58.8195C182.945 59.0167 182.951 59.2077 182.963 59.3925C182.975 59.5712 182.988 59.7191 183 59.8362C183.019 59.9471 183.028 60.0026 183.028 60.0026H182.945L182.529 59.5127V53.4033H182.945ZM183.684 53.4033V53.4957C183.684 53.4957 183.656 53.4957 183.601 53.4957C183.545 53.4957 183.518 53.4957 183.518 53.4957C183.364 53.4957 183.231 53.5511 183.12 53.6621C183.009 53.7668 182.951 53.8993 182.945 54.0595H182.917V53.4033H183.684ZM181.78 53.4033H182.547V54.0595H182.529C182.522 53.8993 182.464 53.7668 182.353 53.6621C182.248 53.5511 182.116 53.4957 181.956 53.4957C181.956 53.4957 181.928 53.4957 181.872 53.4957C181.817 53.4957 181.786 53.4957 181.78 53.4957V53.4033ZM190.48 57.1743L190.369 58.6254C190.209 58.8904 190.006 59.1276 189.759 59.3371C189.519 59.5404 189.232 59.7037 188.9 59.827C188.573 59.944 188.197 60.0026 187.772 60.0026C187.131 59.9964 186.561 59.8547 186.062 59.5774C185.563 59.3001 185.172 58.9119 184.888 58.4128C184.611 57.9075 184.472 57.3129 184.472 56.629C184.472 55.9573 184.611 55.372 184.888 54.8729C185.166 54.3676 185.554 53.9763 186.053 53.699C186.558 53.4156 187.15 53.2739 187.827 53.2739C188.283 53.2739 188.693 53.3355 189.057 53.4587C189.426 53.5758 189.747 53.7237 190.018 53.9024L190.203 55.2056H190.12C189.984 54.6634 189.707 54.2536 189.288 53.9763C188.869 53.6929 188.382 53.5511 187.827 53.5511C187.285 53.5511 186.814 53.6805 186.413 53.9393C186.019 54.192 185.711 54.5494 185.489 55.0115C185.273 55.4675 185.166 56.0035 185.166 56.6197C185.166 57.2359 185.273 57.7751 185.489 58.2372C185.711 58.6993 186.016 59.0598 186.404 59.3186C186.798 59.5774 187.254 59.713 187.772 59.7253C188.209 59.7253 188.613 59.6452 188.983 59.485C189.359 59.3186 189.673 59.0506 189.926 58.6809C190.178 58.305 190.338 57.8028 190.406 57.1743H190.48ZM192.326 53.4125L194.138 56.7861L193.741 57.1096L191.532 53.4125H192.326ZM194.267 56.897V59.8732H193.667V56.897H194.267ZM195.913 53.4125H196.476L194.203 57.0911L193.87 56.9894L195.913 53.4125ZM195.534 54.0687C195.589 53.9825 195.605 53.8962 195.58 53.8099C195.555 53.7175 195.509 53.6436 195.441 53.5881C195.373 53.5265 195.296 53.4957 195.21 53.4957C195.21 53.4957 195.192 53.4957 195.155 53.4957C195.118 53.4957 195.099 53.4957 195.099 53.4957V53.4033H197.151V53.4957H197.022C196.831 53.4957 196.652 53.5511 196.486 53.6621C196.319 53.773 196.187 53.8993 196.088 54.041L195.534 54.0687ZM192.678 54.0687L191.901 54.041C191.815 53.8993 191.689 53.773 191.522 53.6621C191.356 53.5511 191.174 53.4957 190.977 53.4957H190.848V53.4033H193.121V53.4957C193.121 53.4957 193.1 53.4957 193.057 53.4957C193.02 53.4957 193.001 53.4957 193.001 53.4957C192.866 53.4957 192.761 53.5604 192.687 53.6898C192.619 53.813 192.616 53.9393 192.678 54.0687ZM193.685 59.1985V59.8732H192.955V59.7807C192.955 59.7807 192.973 59.7807 193.01 59.7807C193.047 59.7807 193.069 59.7807 193.075 59.7807C193.235 59.7807 193.371 59.7253 193.482 59.6144C193.599 59.4973 193.66 59.3587 193.667 59.1985H193.685ZM194.24 59.1985H194.267C194.267 59.3587 194.326 59.4973 194.443 59.6144C194.56 59.7253 194.699 59.7807 194.859 59.7807C194.859 59.7807 194.877 59.7807 194.914 59.7807C194.951 59.7807 194.97 59.7807 194.97 59.7807V59.8732H194.24V59.1985ZM197.007 59.9101C196.89 59.9101 196.791 59.8701 196.711 59.79C196.631 59.7099 196.591 59.6113 196.591 59.4942C196.591 59.3771 196.631 59.2786 196.711 59.1985C196.791 59.1183 196.89 59.0783 197.007 59.0783C197.124 59.0783 197.223 59.1183 197.303 59.1985C197.383 59.2786 197.423 59.3771 197.423 59.4942C197.423 59.6113 197.383 59.7099 197.303 59.79C197.223 59.8701 197.124 59.9101 197.007 59.9101ZM202.005 53.4033V59.8732H201.404V53.4033H202.005ZM204.5 59.5866V59.8732H201.977V59.5866H204.5ZM204.103 56.5458V56.8231H201.977V56.5458H204.103ZM204.5 53.4033V53.6898H201.977V53.4033H204.5ZM205.064 58.3758L204.528 59.8732H202.994L203.326 59.5866C203.653 59.5866 203.918 59.5373 204.121 59.4388C204.331 59.334 204.5 59.1892 204.63 59.0044C204.759 58.8195 204.873 58.61 204.972 58.3758H205.064ZM204.103 56.8046V57.4146H204.01V57.276C204.01 57.1527 203.967 57.048 203.881 56.9617C203.795 56.8693 203.69 56.8231 203.567 56.8231V56.8046H204.103ZM204.103 55.9543V56.5643H203.567V56.5458C203.69 56.5396 203.795 56.4934 203.881 56.4071C203.967 56.3147 204.01 56.2069 204.01 56.0837V55.9543H204.103ZM204.5 53.6621V54.4015H204.408V54.2351C204.408 54.0872 204.355 53.9609 204.251 53.8562C204.146 53.7452 204.016 53.6867 203.862 53.6805V53.6621H204.5ZM204.5 53.2369V53.5049L203.373 53.4033C203.508 53.4033 203.65 53.394 203.798 53.3755C203.952 53.357 204.094 53.3355 204.223 53.3108C204.352 53.2862 204.445 53.2615 204.5 53.2369ZM201.432 59.1985V59.8732H200.692V59.7807C200.692 59.7807 200.711 59.7807 200.748 59.7807C200.791 59.7807 200.812 59.7807 200.812 59.7807C200.973 59.7807 201.108 59.7253 201.219 59.6144C201.336 59.4973 201.398 59.3587 201.404 59.1985H201.432ZM201.432 54.078H201.404C201.404 53.9178 201.345 53.7822 201.228 53.6713C201.111 53.5542 200.973 53.4957 200.812 53.4957C200.812 53.4957 200.794 53.4957 200.757 53.4957C200.72 53.4957 200.701 53.4957 200.701 53.4957L200.692 53.4033H201.432V54.078ZM206.914 53.4033L211.027 59.8639H210.288L206.193 53.4033H206.914ZM207.034 59.2077C206.979 59.294 206.963 59.3833 206.988 59.4757C207.013 59.562 207.059 59.6359 207.127 59.6976C207.2 59.753 207.277 59.7807 207.358 59.7807C207.358 59.7807 207.376 59.7807 207.413 59.7807C207.456 59.7807 207.478 59.7807 207.478 59.7807V59.8732H205.38V59.7807H205.509C205.706 59.7807 205.888 59.7253 206.054 59.6144C206.221 59.5035 206.353 59.3771 206.452 59.2354L207.034 59.2077ZM208.328 56.4349L208.541 56.8323L206.618 59.8639H206.027L208.328 56.4349ZM209.872 59.2077L210.629 59.2447C210.728 59.3864 210.861 59.5127 211.027 59.6236C211.193 59.7284 211.372 59.7807 211.563 59.7807H211.692V59.8732H209.437V59.7807C209.437 59.7807 209.456 59.7807 209.493 59.7807C209.53 59.7807 209.548 59.7807 209.548 59.7807C209.677 59.7807 209.782 59.7191 209.862 59.5959C209.949 59.4727 209.952 59.3433 209.872 59.2077ZM207.773 53.4033V53.4957C207.773 53.4957 207.755 53.4957 207.718 53.4957C207.681 53.4957 207.663 53.4957 207.663 53.4957C207.582 53.4957 207.505 53.5265 207.432 53.5881C207.364 53.6436 207.318 53.7175 207.293 53.8099C207.274 53.8962 207.29 53.9825 207.339 54.0687L206.6 54.041C206.501 53.8993 206.369 53.773 206.202 53.6621C206.042 53.5511 205.863 53.4957 205.666 53.4957H205.537V53.4033H207.773ZM210.888 53.4033L208.716 56.6012L208.402 56.3794L210.288 53.4033H210.888ZM211.517 53.4033V53.4957H211.387C211.196 53.4957 211.018 53.5511 210.851 53.6621C210.691 53.773 210.559 53.8993 210.454 54.041L209.862 54.0687C209.918 53.9825 209.933 53.8962 209.909 53.8099C209.89 53.7175 209.847 53.6436 209.779 53.5881C209.711 53.5265 209.634 53.4957 209.548 53.4957C209.548 53.4957 209.53 53.4957 209.493 53.4957C209.456 53.4957 209.437 53.4957 209.437 53.4957V53.4033H211.517ZM213.339 53.4033H214.559C214.953 53.4033 215.292 53.4741 215.575 53.6158C215.859 53.7576 216.078 53.964 216.232 54.2351C216.386 54.5001 216.463 54.8174 216.463 55.1871C216.463 55.4706 216.407 55.7263 216.296 55.9543C216.185 56.1761 216.038 56.364 215.853 56.5181C215.668 56.6721 215.458 56.7892 215.224 56.8693C214.99 56.9432 214.747 56.971 214.494 56.9525C214.247 56.934 214.007 56.8631 213.773 56.7399V56.6475C213.773 56.6475 213.825 56.6567 213.93 56.6752C214.035 56.6875 214.167 56.6906 214.328 56.6844C214.494 56.6721 214.666 56.6382 214.845 56.5828C215.03 56.5211 215.199 56.4164 215.354 56.2685C215.514 56.1206 215.634 55.9142 215.714 55.6492C215.732 55.5815 215.748 55.4983 215.76 55.3997C215.773 55.2949 215.776 55.1933 215.769 55.0947C215.763 54.6695 215.652 54.3275 215.437 54.0687C215.221 53.8099 214.916 53.6805 214.522 53.6805H213.431C213.431 53.6805 213.422 53.659 213.403 53.6158C213.391 53.5665 213.376 53.5203 213.357 53.4772C213.345 53.4279 213.339 53.4033 213.339 53.4033ZM213.459 53.4033V59.8732H212.858V53.4033H213.459ZM212.886 59.1985V59.8732H212.146V59.7807C212.146 59.7807 212.165 59.7807 212.202 59.7807C212.245 59.7807 212.266 59.7807 212.266 59.7807C212.427 59.7807 212.562 59.7253 212.673 59.6144C212.79 59.4973 212.852 59.3587 212.858 59.1985H212.886ZM212.886 54.078H212.858C212.858 53.9178 212.799 53.7822 212.682 53.6713C212.565 53.5542 212.427 53.4957 212.266 53.4957C212.266 53.4957 212.248 53.4957 212.211 53.4957C212.174 53.4957 212.156 53.4957 212.156 53.4957L212.146 53.4033H212.886V54.078ZM213.431 59.1985H213.459C213.465 59.3587 213.523 59.4973 213.634 59.6144C213.751 59.7253 213.89 59.7807 214.05 59.7807C214.05 59.7807 214.069 59.7807 214.106 59.7807C214.149 59.7807 214.17 59.7807 214.17 59.7807V59.8732H213.431V59.1985ZM218.748 53.4033V59.8732H218.147V53.4033H218.748ZM221.244 59.5866V59.8732H218.72V59.5866H221.244ZM220.846 56.5458V56.8231H218.72V56.5458H220.846ZM221.244 53.4033V53.6898H218.72V53.4033H221.244ZM221.807 58.3758L221.271 59.8732H219.737L220.07 59.5866C220.396 59.5866 220.661 59.5373 220.865 59.4388C221.074 59.334 221.244 59.1892 221.373 59.0044C221.502 58.8195 221.616 58.61 221.715 58.3758H221.807ZM220.846 56.8046V57.4146H220.754V57.276C220.754 57.1527 220.711 57.048 220.624 56.9617C220.538 56.8693 220.433 56.8231 220.31 56.8231V56.8046H220.846ZM220.846 55.9543V56.5643H220.31V56.5458C220.433 56.5396 220.538 56.4934 220.624 56.4071C220.711 56.3147 220.754 56.2069 220.754 56.0837V55.9543H220.846ZM221.244 53.6621V54.4015H221.151V54.2351C221.151 54.0872 221.099 53.9609 220.994 53.8562C220.889 53.7452 220.76 53.6867 220.606 53.6805V53.6621H221.244ZM221.244 53.2369V53.5049L220.116 53.4033C220.252 53.4033 220.393 53.394 220.541 53.3755C220.695 53.357 220.837 53.3355 220.966 53.3108C221.096 53.2862 221.188 53.2615 221.244 53.2369ZM218.175 59.1985V59.8732H217.436V59.7807C217.436 59.7807 217.454 59.7807 217.491 59.7807C217.534 59.7807 217.556 59.7807 217.556 59.7807C217.716 59.7807 217.852 59.7253 217.962 59.6144C218.08 59.4973 218.141 59.3587 218.147 59.1985H218.175ZM218.175 54.078H218.147C218.147 53.9178 218.089 53.7822 217.972 53.6713C217.855 53.5542 217.716 53.4957 217.556 53.4957C217.556 53.4957 217.537 53.4957 217.5 53.4957C217.463 53.4957 217.445 53.4957 217.445 53.4957L217.436 53.4033H218.175V54.078ZM223.872 53.4033H225.175C225.453 53.4033 225.702 53.4433 225.924 53.5234C226.152 53.6035 226.343 53.7206 226.497 53.8746C226.651 54.0225 226.768 54.2043 226.848 54.42C226.934 54.6295 226.978 54.8698 226.978 55.1409C226.978 55.4367 226.907 55.7201 226.765 55.9912C226.629 56.2623 226.442 56.4842 226.201 56.6567C225.967 56.8231 225.702 56.9063 225.406 56.9063C225.511 56.9494 225.625 57.0387 225.748 57.1743C225.872 57.3037 225.979 57.43 226.072 57.5532C226.072 57.5532 226.112 57.6149 226.192 57.7381C226.278 57.8552 226.383 58 226.506 58.1725C226.636 58.345 226.765 58.5145 226.894 58.6809C227.024 58.8472 227.135 58.9797 227.227 59.0783C227.35 59.2139 227.474 59.334 227.597 59.4388C227.72 59.5435 227.853 59.6267 227.994 59.6883C228.142 59.7499 228.306 59.7807 228.484 59.7807V59.8732H227.976C227.692 59.8732 227.446 59.83 227.236 59.7438C227.033 59.6575 226.861 59.5528 226.719 59.4295C226.577 59.3001 226.457 59.1769 226.358 59.0598C226.34 59.0352 226.288 58.9643 226.201 58.8472C226.121 58.7302 226.023 58.5915 225.905 58.4313C225.795 58.2649 225.684 58.1016 225.573 57.9414C225.462 57.7812 225.366 57.6457 225.286 57.5348C225.206 57.4177 225.16 57.3499 225.148 57.3314C225.03 57.1774 224.901 57.0357 224.759 56.9063C224.618 56.7769 224.464 56.7122 224.297 56.7122V56.6197C224.297 56.6197 224.343 56.6228 224.436 56.629C224.534 56.629 224.652 56.6259 224.787 56.6197C224.947 56.6136 225.123 56.5889 225.314 56.5458C225.505 56.5027 225.684 56.4133 225.85 56.2777C226.016 56.1422 226.143 55.9358 226.229 55.6585C226.247 55.5907 226.263 55.5075 226.275 55.4089C226.288 55.3042 226.291 55.2025 226.284 55.1039C226.278 54.6849 226.17 54.3522 225.961 54.1057C225.758 53.8531 225.483 53.7175 225.138 53.699C224.966 53.6867 224.787 53.6836 224.602 53.6898C224.424 53.6898 224.273 53.6898 224.149 53.6898C224.026 53.6898 223.965 53.6898 223.965 53.6898C223.965 53.6836 223.955 53.659 223.937 53.6158C223.924 53.5665 223.909 53.5203 223.891 53.4772C223.878 53.4279 223.872 53.4033 223.872 53.4033ZM223.992 53.4033V59.8732H223.391V53.4033H223.992ZM223.419 59.1985V59.8732H222.68V59.7807C222.68 59.7807 222.698 59.7807 222.735 59.7807C222.778 59.7807 222.8 59.7807 222.8 59.7807C222.96 59.7807 223.096 59.7253 223.207 59.6144C223.324 59.4973 223.385 59.3587 223.391 59.1985H223.419ZM223.419 54.078H223.391C223.385 53.9178 223.324 53.7822 223.207 53.6713C223.096 53.5542 222.96 53.4957 222.8 53.4957C222.8 53.4957 222.778 53.4957 222.735 53.4957C222.698 53.4957 222.68 53.4957 222.68 53.4957V53.4033H223.419V54.078ZM223.965 59.1985H223.992C223.992 59.3587 224.051 59.4973 224.168 59.6144C224.285 59.7253 224.424 59.7807 224.584 59.7807C224.584 59.7807 224.602 59.7807 224.639 59.7807C224.676 59.7807 224.695 59.7807 224.695 59.7807V59.8732H223.965V59.1985ZM231.036 53.431V59.8732H230.435V53.431H231.036ZM233.411 53.394V53.6713H228.06V53.394H233.411ZM233.411 53.6436V54.3922L233.319 54.383V54.2259C233.319 54.0718 233.263 53.9424 233.152 53.8377C233.048 53.7329 232.921 53.6775 232.773 53.6713V53.6436H233.411ZM233.411 53.2276V53.4957L232.284 53.394C232.419 53.394 232.561 53.3848 232.709 53.3663C232.863 53.3478 233.005 53.3262 233.134 53.3016C233.263 53.2769 233.356 53.2523 233.411 53.2276ZM230.463 59.1985V59.8732H229.723V59.7807C229.723 59.7807 229.742 59.7807 229.779 59.7807C229.822 59.7807 229.844 59.7807 229.844 59.7807C230.004 59.7807 230.139 59.7253 230.25 59.6144C230.367 59.4973 230.429 59.3587 230.435 59.1985H230.463ZM231.008 59.1985H231.036C231.042 59.3587 231.101 59.4973 231.211 59.6144C231.329 59.7253 231.467 59.7807 231.627 59.7807C231.627 59.7807 231.646 59.7807 231.683 59.7807C231.726 59.7807 231.748 59.7807 231.748 59.7807V59.8732H231.008V59.1985ZM228.697 53.6436V53.6713C228.543 53.6775 228.414 53.7329 228.309 53.8377C228.204 53.9424 228.152 54.0718 228.152 54.2259V54.383L228.06 54.3922V53.6436H228.697ZM228.06 53.2276C228.121 53.2523 228.214 53.2769 228.337 53.3016C228.466 53.3262 228.608 53.3478 228.762 53.3663C228.916 53.3848 229.058 53.394 229.187 53.394L228.06 53.4957V53.2276ZM235.455 53.4033V59.8732H234.855V53.4033H235.455ZM234.882 59.1985V59.8732H234.143V59.7807C234.143 59.7807 234.161 59.7807 234.198 59.7807C234.242 59.7807 234.263 59.7807 234.263 59.7807C234.423 59.7807 234.559 59.7253 234.67 59.6144C234.787 59.4973 234.848 59.3587 234.855 59.1985H234.882ZM234.882 54.078H234.855C234.848 53.9178 234.787 53.7822 234.67 53.6713C234.559 53.5542 234.423 53.4957 234.263 53.4957C234.263 53.4957 234.242 53.4957 234.198 53.4957C234.161 53.4957 234.143 53.4957 234.143 53.4957V53.4033H234.882V54.078ZM235.428 59.1985H235.455C235.462 59.3587 235.52 59.4973 235.631 59.6144C235.748 59.7253 235.887 59.7807 236.047 59.7807C236.047 59.7807 236.065 59.7807 236.102 59.7807C236.139 59.7807 236.161 59.7807 236.167 59.7807V59.8732H235.428V59.1985ZM235.428 54.078V53.4033H236.167V53.4957C236.161 53.4957 236.139 53.4957 236.102 53.4957C236.065 53.4957 236.047 53.4957 236.047 53.4957C235.887 53.4957 235.748 53.5542 235.631 53.6713C235.52 53.7822 235.462 53.9178 235.455 54.078H235.428ZM239.031 53.2739C239.13 53.2739 239.235 53.28 239.346 53.2923C239.463 53.3047 239.574 53.3232 239.678 53.3478C239.789 53.3663 239.888 53.3879 239.974 53.4125C240.066 53.431 240.137 53.4526 240.187 53.4772V54.5031H240.103C240.103 54.2074 240.002 53.9763 239.798 53.8099C239.595 53.6374 239.349 53.5511 239.059 53.5511C238.72 53.5511 238.446 53.659 238.236 53.8746C238.027 54.0841 237.922 54.3306 237.922 54.6141C237.922 54.7311 237.947 54.8698 237.996 55.03C238.052 55.184 238.15 55.3288 238.292 55.4644L240.113 57.1466C240.298 57.3191 240.421 57.504 240.482 57.7011C240.544 57.8983 240.575 58.0893 240.575 58.2742C240.575 58.7856 240.418 59.2015 240.103 59.5219C239.795 59.8424 239.376 60.0026 238.846 60.0026C238.699 60.0026 238.523 59.9872 238.32 59.9564C238.122 59.9255 237.928 59.8732 237.737 59.7992C237.552 59.7191 237.398 59.6175 237.275 59.4942C237.257 59.3956 237.247 59.2724 237.247 59.1245C237.247 58.9766 237.26 58.8226 237.284 58.6624C237.309 58.496 237.343 58.345 237.386 58.2095H237.469C237.438 58.5237 237.479 58.7979 237.589 59.0321C237.7 59.2662 237.861 59.4449 238.07 59.5682C238.286 59.6852 238.529 59.7376 238.8 59.7253C239.139 59.7068 239.429 59.5897 239.669 59.3741C239.916 59.1522 240.039 58.8565 240.039 58.4868C240.039 58.3081 240.008 58.1479 239.946 58.0061C239.885 57.8583 239.795 57.7319 239.678 57.6272L237.904 55.982C237.719 55.8095 237.589 55.6215 237.515 55.4182C237.442 55.2087 237.405 55.0146 237.405 54.8359C237.405 54.5771 237.466 54.3275 237.589 54.0872C237.713 53.8469 237.894 53.6528 238.135 53.5049C238.381 53.3509 238.68 53.2739 239.031 53.2739ZM240.187 53.3663V53.5604H239.484V53.3663H240.187ZM242.965 53.4033V59.8732H242.364V53.4033H242.965ZM245.461 59.5866V59.8732H242.937V59.5866H245.461ZM245.063 56.5458V56.8231H242.937V56.5458H245.063ZM245.461 53.4033V53.6898H242.937V53.4033H245.461ZM246.024 58.3758L245.488 59.8732H243.954L244.287 59.5866C244.613 59.5866 244.878 59.5373 245.082 59.4388C245.291 59.334 245.461 59.1892 245.59 59.0044C245.719 58.8195 245.833 58.61 245.932 58.3758H246.024ZM245.063 56.8046V57.4146H244.971V57.276C244.971 57.1527 244.928 57.048 244.841 56.9617C244.755 56.8693 244.65 56.8231 244.527 56.8231V56.8046H245.063ZM245.063 55.9543V56.5643H244.527V56.5458C244.65 56.5396 244.755 56.4934 244.841 56.4071C244.928 56.3147 244.971 56.2069 244.971 56.0837V55.9543H245.063ZM245.461 53.6621V54.4015H245.368V54.2351C245.368 54.0872 245.316 53.9609 245.211 53.8562C245.106 53.7452 244.977 53.6867 244.823 53.6805V53.6621H245.461ZM245.461 53.2369V53.5049L244.333 53.4033C244.469 53.4033 244.61 53.394 244.758 53.3755C244.912 53.357 245.054 53.3355 245.183 53.3108C245.313 53.2862 245.405 53.2615 245.461 53.2369ZM242.392 59.1985V59.8732H241.653V59.7807C241.653 59.7807 241.671 59.7807 241.708 59.7807C241.751 59.7807 241.773 59.7807 241.773 59.7807C241.933 59.7807 242.069 59.7253 242.179 59.6144C242.297 59.4973 242.358 59.3587 242.364 59.1985H242.392ZM242.392 54.078H242.364C242.364 53.9178 242.306 53.7822 242.189 53.6713C242.072 53.5542 241.933 53.4957 241.773 53.4957C241.773 53.4957 241.754 53.4957 241.717 53.4957C241.68 53.4957 241.662 53.4957 241.662 53.4957L241.653 53.4033H242.392V54.078ZM247.264 59.9101C247.147 59.9101 247.049 59.8701 246.969 59.79C246.888 59.7099 246.848 59.6113 246.848 59.4942C246.848 59.3771 246.888 59.2786 246.969 59.1985C247.049 59.1183 247.147 59.0783 247.264 59.0783C247.381 59.0783 247.48 59.1183 247.56 59.1985C247.64 59.2786 247.68 59.3771 247.68 59.4942C247.68 59.6113 247.64 59.7099 247.56 59.79C247.48 59.8701 247.381 59.9101 247.264 59.9101Z" fill="#414042"/>
</svg>
